<?xml version="1.0" standalone="no"?><!DOCTYPE svg PUBLIC "-//W3C//DTD SVG 1.1//EN" "http://www.w3.org/Graphics/SVG/1.1/DTD/svg11.dtd"><svg t="1587110667043" class="icon" viewBox="0 0 1024 1024" version="1.1" xmlns="http://www.w3.org/2000/svg" p-id="2552" xmlns:xlink="http://www.w3.org/1999/xlink" width="64" height="64"><defs><style type="text/css"></style></defs><path d="M607.7 417.7s22.2 53.7-19.2 114.5c28.5-11.6 47.2-39.5 47.2-39.5s7.3-29.7 2.3-50.4c-7-14.6-30.3-24.6-30.3-24.6zM429.7 587.2c16.7 21.4 55.2 21.7 55.2 21.7s2.1-7.4 7.4-15.2c-18 2.6-62.6-6.5-62.6-6.5zM544.3 92.8c-108.2 0-221.4 44.9-309.5 133C138.5 322 93.8 448.3 103 565.3v-0.1c0 0.5 0.1 1 0.1 1.5 0.1 1.6 0.3 3.2 0.4 4.9 0.1 1 0.2 2.1 0.3 3.2 0.1 1.3 0.3 2.6 0.4 3.9l0.3 2.7c0.2 1.8 0.5 3.6 0.7 5.5 0.1 0.9 0.2 1.8 0.4 2.7 0.2 1.5 0.5 3 0.7 4.5 0.2 1.1 0.3 2.1 0.5 3.2 0.1 0.6 0.2 1.2 0.3 1.7-9.4-121.8 37.2-253.1 137.3-353.3C382.9 107.3 580.8 71.2 730.8 143.8c-55.7-34.2-120.2-51-186.5-51z" fill="#FFFFFF" p-id="2553"></path><path d="M893.7 582.1c-67.7 28-47.2 111.4-65.6 156.5-18.5 45.1-69.7 63.5-88.2 59.5s-45.1 0-65.6 57.4c-3.3 9.1-6.6 17.9-10.3 26.1 44.8-22.5 87.4-52.8 125.5-90.9 65.5-65.5 108.1-144.3 127.1-225-6.8 7.2-14.4 12.8-22.9 16.4zM358.6 871.9c-36.1 6.2-72.7 0.9-106.3-9.5 82 58.8 185.7 78.4 288.1 60.3 1.8-0.3 3.7-0.6 5.5-1-55.8-11.3-74.5-69.3-187.3-49.8z" fill="#F2B666" p-id="2554"></path><path d="M638 442.3c-1.2-1.3-2.5-2.7-3.8-3.9-48.2-48.2-131.4-43.2-185.8 11.3-34.6 34.6-49.2 80.8-42.9 122.2-44.2-48.7-38-128.9 15-181.9 54.4-54.4 137.6-59.5 185.8-11.3 17.6 17.5 28.1 39.8 31.7 63.6z" fill="#DB841D" p-id="2555"></path><path d="M824.7 210.5c-24-24-50.8-43.8-79.6-59.4C595.8 82.4 401.4 119.5 265 255.9c-170 170-185.7 429.7-35.2 580.2 10.7 10.7 21.8 20.5 33.5 29.4 30.5 8.2 63.1 11.8 95.3 6.3 62-10.7 95.6 2 122.5 17.5 19 7.9 33.6 18.6 48.8 27.6 5 2 10.3 3.6 16 4.8 3 0.6 6.2 1.1 9.5 1.4 36 3.5 57.4-7.1 72.3-25.3 11.4-14 18.9-32.5 26.1-52.6 20.5-57.4 47.2-61.5 65.6-57.4s69.7-14.4 88.2-59.5-2.1-128.5 65.6-156.5c27.4-11.3 45.1-44 54.3-83.9 4.9-103-28.9-203.4-102.8-277.4zM615.5 574.7c-47.9 47.9-118 57.5-167 26.4-6.7-4.3-13-9.3-18.8-15.1-48.2-48.2-43.2-131.4 11.3-185.8 41.5-41.5 99.8-54.3 146.5-36.6 14.5 5.5 27.9 13.9 39.3 25.3 48.2 48.2 43.2 131.4-11.3 185.8z" fill="#F779AA" p-id="2556"></path><path d="M481.1 889.4c-23.9-10-54.7-15.5-102-7.3-36.1 6.2-72.7 0.9-106.3-9.5-3.2-2.3-6.4-4.7-9.5-7.1 30.5 8.2 63.1 11.8 95.3 6.3 62-10.6 95.6 2.1 122.5 17.6zM774 168.7c-0.3-0.2-0.5-0.4-0.8-0.5 0.3 0.1 0.5 0.3 0.8 0.5zM529.9 917c5 2 10.3 3.6 16 4.8-1.8 0.3-3.7 0.7-5.5 1-3.5-1.9-7-3.8-10.5-5.8zM927.5 488c-1.2 25.9-4.9 51.9-11 77.7-6.7 7.3-14.3 12.9-22.8 16.4-67.7 28-47.2 111.4-65.6 156.5-18.5 45.1-69.7 63.5-88.2 59.5s-45.1 0-65.6 57.4c-3.3 9.1-6.6 17.9-10.3 26.1-12 6-24.1 11.4-36.3 16.3 11.4-14 18.9-32.5 26.1-52.6 20.5-57.4 47.2-61.5 65.6-57.4s69.7-14.3 88.2-59.5c18.4-45.1-2.1-128.5 65.6-156.5 27.4-11.4 45.1-44.1 54.3-83.9z" fill="#DB841D" p-id="2557"></path><path d="M854 319.3c13.4-72.9-83.7-61.6-80-150.6-0.5-0.4-1.1-0.7-1.6-1.1-3.7-2.5-7.5-4.9-11.2-7.2-1.3-0.8-2.5-1.5-3.8-2.3-1.2-0.7-2.5-1.5-3.7-2.2 0 0-0.1 0-0.1-0.1-1.3-0.7-2.6-1.5-3.9-2.2l-3.9-2.1-3.9-2.1c-0.1 0-0.2-0.1-0.2-0.1-1.2-0.6-2.4-1.3-3.7-1.9-1.3-0.7-2.6-1.3-3.9-2-4-2-8-3.9-12-5.7-5.4-2.4-10.8-4.7-16.3-6.8-4.1-1.6-8.2-3.1-12.4-4.6-2.7-1-5.5-1.9-8.2-2.8h-0.2c-1.4-0.5-2.8-0.9-4.2-1.3s-2.8-0.9-4.2-1.3c-2.6-0.8-5.2-1.5-7.8-2.2-0.3-0.1-0.5-0.2-0.8-0.2-1.4-0.4-2.8-0.8-4.2-1.1-1.2-0.3-2.5-0.6-3.7-0.9l-1.2-0.3c-1.2-0.3-2.5-0.6-3.7-0.9-1.4-0.3-2.9-0.7-4.3-1-1.3-0.3-2.5-0.5-3.8-0.8-1.6-0.3-3.3-0.7-4.9-1-1.1-0.2-2.3-0.4-3.4-0.6-0.6-0.1-1.3-0.2-1.9-0.3-1.1-0.2-2.3-0.4-3.4-0.6-1.5-0.2-2.9-0.5-4.4-0.7s-2.9-0.5-4.4-0.7l-4.2-0.6h-0.3c-1.2-0.2-2.4-0.3-3.7-0.5-2.8-0.3-5.5-0.7-8.3-1-0.8-0.1-1.5-0.2-2.3-0.2l-3.3-0.3h-0.1c-0.9-0.1-1.7-0.1-2.5-0.2-1.2-0.1-2.4-0.2-3.5-0.3-0.9-0.1-1.9-0.1-2.8-0.2-1.1-0.1-2.1-0.1-3.2-0.2-1-0.1-2-0.1-2.9-0.2s-1.9-0.1-2.8-0.1c-0.9 0-1.8-0.1-2.6-0.1h-1.5c-0.6 0-1.2 0-1.8-0.1-1 0-1.9 0-2.9-0.1-1.7 0-3.4-0.1-5.2-0.1h-4c-3.5 0-7.1 0-10.6 0.1s-7.1 0.2-10.6 0.4c-1.8 0.1-3.5 0.2-5.3 0.3-1.2 0.1-2.4 0.2-3.6 0.2-0.8 0.1-1.7 0.1-2.5 0.2-1.5 0.1-3 0.2-4.5 0.4-1.4 0.1-2.8 0.3-4.3 0.4-0.5 0-0.9 0.1-1.4 0.1-0.3 0-0.7 0.1-1 0.1-42 4.4-84 15.1-124.5 32.1-1.6 0.7-3.2 1.3-4.7 2-1.9 0.8-3.8 1.6-5.6 2.5l-3.9 1.8c-1.2 0.5-2.4 1.1-3.6 1.7-1.1 0.5-2.3 1.1-3.4 1.6-3.2 1.5-6.4 3.1-9.5 4.7-1.2 0.6-2.3 1.2-3.5 1.8-0.9 0.4-1.7 0.9-2.6 1.3-1.5 0.8-3.1 1.6-4.6 2.4-1.7 0.9-3.3 1.8-5 2.7s-3.3 1.9-5 2.8c-1.7 1-3.3 1.9-5 2.9s-3.3 2-4.9 2.9c-1.6 1-3.3 2-4.9 3-3.3 2-6.5 4.1-9.8 6.2s-6.4 4.3-9.6 6.5c-6.4 4.4-12.7 9-18.9 13.8-3 2.3-6 4.6-9 7-0.5 0.4-1.1 0.9-1.6 1.3-1.1 0.9-2.2 1.8-3.2 2.6-12.2 10-24.1 20.8-35.6 32.3l-4.3 4.3c-24.7 25.3-46.1 52.6-64.1 81.2-0.1 0.1-0.1 0.2-0.2 0.3-12.7 20.2-23.7 41.1-32.9 62.3v0.1c0 0.1-0.1 0.1-0.1 0.2-13.6 31.3-23.5 63.5-29.6 95.9v0.3c-0.3 1.5-0.6 3.1-0.8 4.6l-0.9 5.4c-0.8 4.7-1.5 9.3-2 14v0.1c-0.2 1.6-0.4 3.2-0.6 4.9-0.2 1.6-0.4 3.2-0.5 4.8v0.2c-0.1 1.3-0.3 2.6-0.4 3.9-0.1 0.5-0.1 1-0.2 1.5-0.1 1.4-0.3 2.8-0.4 4.2v0.2c-0.1 1.3-0.2 2.7-0.3 4-0.1 0.9-0.1 1.8-0.2 2.6 0 0.5-0.1 0.9-0.1 1.4-0.1 1.4-0.2 2.7-0.2 4.1 0 0.4 0 0.8-0.1 1.2-0.1 1.3-0.1 2.5-0.2 3.8 0 0.5 0 1-0.1 1.5 0 1.1-0.1 2.1-0.1 3.2 0 0.8 0 1.5-0.1 2.3v1c0 1.4-0.1 2.7-0.1 4.1V576.1c0.1 4.4 0.2 8.8 0.5 13.2 0 0.9 0.1 1.8 0.1 2.7l0.3 4.5c0.2 2.2 0.3 4.3 0.5 6.4l0.3 3.6 0.3 3c0.3 2.8 0.6 5.5 1 8.2 0.2 1.2 0.3 2.4 0.5 3.6v0.1c0.2 1.4 0.4 2.9 0.6 4.3 0.2 1.2 0.4 2.3 0.5 3.5l0.3 1.8c0.2 1.2 0.4 2.3 0.6 3.5l0.6 3.3c0.2 0.9 0.3 1.8 0.5 2.8 0.2 0.9 0.4 1.9 0.5 2.8 0.3 1.4 0.5 2.7 0.8 4.1v0.1c0.3 1.4 0.6 2.9 0.9 4.3 0.3 1.2 0.5 2.4 0.8 3.6 0.4 1.8 0.9 3.7 1.3 5.5 0.3 1.3 0.6 2.6 1 3.9l1.2 4.5c0.4 1.3 0.7 2.7 1.1 4l1.2 4.2c13.9 5.9 29.4 9.9 46.1 12.1 125 16.2 36 103.5 119.2 141.8 106.6 49 158.1 18 208.7-38.3 50.6-56.2 137.6-21.4 207.4-50.6 69.8-29.2 61.6-139.4 84.1-170.9s79.4-37.7 96.2-128.4c13.6-72.9-42.7-50.4-29.2-124zM595 564.5c-54.4 54.4-137.6 59.5-185.8 11.3-48.2-48.3-43.2-131.5 11.3-185.9 54.4-54.4 137.6-59.5 185.8-11.3S649.5 510 595 564.5z" fill="#F779AA" p-id="2558"></path><path d="M927.5 488c-9.2 39.8-26.9 72.5-54.3 83.9-67.7 28-47.2 111.4-65.6 156.5-18.5 45.1-69.7 63.6-88.2 59.5s-45.1 0-65.6 57.4c-7.2 20.1-14.7 38.6-26.1 52.6-14.9 18.2-36.3 28.8-72.3 25.3-3.3-0.3-6.4-0.8-9.4-1.4-55.9-11.3-74.6-69.3-187.4-49.8-36.1 6.2-72.7 0.9-106.3-9.5l-3.3-2.4c-0.8-0.6-1.6-1.2-2.4-1.7-2.5-1.8-4.9-3.7-7.4-5.7-0.8-0.6-1.6-1.2-2.3-1.9l-6.9-5.7c-0.8-0.6-1.6-1.3-2.3-2-0.7-0.6-1.3-1.1-2-1.7-1.1-0.9-2.2-1.9-3.2-2.9l-3-2.7c-0.2-0.2-0.5-0.5-0.8-0.7-0.9-0.8-1.8-1.7-2.7-2.5-0.2-0.2-0.4-0.3-0.5-0.5-0.9-0.9-1.8-1.7-2.7-2.6l-0.4-0.4c-1-1-2.1-2-3.1-3.1s-2.1-2.1-3.1-3.2c-0.5-0.5-1-1.1-1.6-1.6-0.9-0.9-1.8-1.9-2.7-2.8l-0.7-0.7c-0.9-1-1.8-1.9-2.7-2.9-0.2-0.2-0.4-0.4-0.6-0.7-0.5-0.6-1-1.2-1.6-1.7-0.5-0.6-1.1-1.2-1.6-1.8s-1-1.2-1.5-1.7c-1-1.1-1.9-2.2-2.8-3.3-0.9-1.1-1.8-2.1-2.7-3.2-0.1-0.1-0.2-0.3-0.3-0.4-0.6-0.7-1.1-1.4-1.7-2-0.6-0.7-1.1-1.3-1.6-2-0.4-0.5-0.8-1-1.2-1.4l-2.1-2.7c-1.5-2-3.1-4-4.5-6-0.9-1.2-1.8-2.5-2.7-3.7l-0.1-0.1-3-4.2c-0.8-1.1-1.6-2.3-2.4-3.5-0.6-0.8-1.1-1.7-1.7-2.5-0.5-0.7-1-1.5-1.5-2.2l-3.3-5.1c-0.4-0.7-0.8-1.3-1.2-2-0.5-0.8-1-1.7-1.5-2.5-0.2-0.4-0.5-0.8-0.7-1.2-0.7-1.1-1.4-2.2-2-3.4-0.9-1.5-1.8-3-2.7-4.6-0.4-0.7-0.8-1.3-1.1-2-0.7-1.1-1.3-2.3-1.9-3.5v-0.1c-0.8-1.5-1.6-2.9-2.3-4.4-0.1-0.2-0.3-0.5-0.4-0.7-0.7-1.4-1.4-2.7-2.1-4.1-0.1-0.2-0.2-0.4-0.3-0.7-0.6-1.2-1.3-2.5-1.9-3.8-1-1.9-1.9-3.9-2.8-5.8-0.6-1.3-1.2-2.6-1.8-3.8-0.3-0.7-0.6-1.3-0.9-2-0.3-0.6-0.5-1.2-0.8-1.9-0.4-0.8-0.7-1.6-1.1-2.5-0.7-1.7-1.5-3.5-2.2-5.2-0.5-1.2-1-2.4-1.5-3.7-0.1-0.3-0.2-0.5-0.3-0.8-0.6-1.5-1.2-3.1-1.8-4.7 0-0.1-0.1-0.2-0.1-0.3-0.6-1.5-1.1-3.1-1.7-4.6-0.1-0.2-0.2-0.4-0.2-0.6-0.4-1-0.8-2.1-1.1-3.1-0.3-0.9-0.6-1.7-0.9-2.6l-2.7-8.1c-0.2-0.7-0.5-1.5-0.7-2.2s-0.5-1.4-0.7-2.2c-0.2-0.6-0.3-1.1-0.5-1.7 13.8 5.9 29.4 9.9 46.1 12.1 32.5 4.2 50.5 13.2 60.8 24.9 8.4 9.5 11.8 20.9 13.7 32.9 3.5 22.2 2.2 46.7 19.4 66 0.1 0.1 0.2 0.3 0.3 0.4 5.9 6.5 13.9 12.4 24.9 17.5 95.2 43.7 146.4 23.7 192.2-21.1l1.4-1.4 1-1c1.1-1 2.1-2.1 3.1-3.2 0.9-0.9 1.8-1.9 2.7-2.8l0.4-0.4c0.8-0.8 1.6-1.6 2.3-2.5 1.8-1.9 3.6-3.9 5.4-5.9 50.6-56.2 137.6-21.4 207.4-50.6 69.8-29.2 61.6-139.4 84.1-170.9s79.4-37.7 96.2-128.4c13.5-73.1-42.8-50.6-29.2-124.2 13.4-72.9-83.7-61.6-80-150.6 1.1 0.8 2.2 1.5 3.3 2.3s2.2 1.5 3.3 2.3c4.1 2.9 8.2 6 12.2 9.1 1.4 1.1 2.8 2.2 4.1 3.3 0.9 0.8 1.9 1.5 2.8 2.3 0.1 0.1 0.2 0.2 0.4 0.3 1.1 0.9 2.1 1.8 3.2 2.6 1 0.9 2.1 1.8 3.1 2.7 0.9 0.8 1.8 1.5 2.7 2.3 3.2 2.9 6.4 5.8 9.6 8.8 1 0.9 2 1.9 3 2.8 1 1 2 2 3 2.9 4.3 4.3 8.5 8.8 12.6 13.3 2 2.2 4 4.5 6 6.8 4.9 5.7 9.6 11.6 14.1 17.6l4.2 5.7a27644768299299944 27644768299299944 0 0 0 24.3 39.4c1.4 2.6 2.7 5.2 4 7.9 3.1 6.2 6 12.5 8.7 18.8 0.4 0.8 0.7 1.6 1 2.4 1 2.3 1.9 4.6 2.8 7 1.1 2.7 2.1 5.5 3.1 8.2 1.5 4.1 2.9 8.3 4.3 12.5 3.2 9.8 5.9 19.7 8.3 29.8 0.7 2.9 1.3 5.8 1.9 8.6 1.2 5.8 2.3 11.6 3.2 17.5 0.5 2.9 0.9 5.8 1.3 8.8 3.3 24.2 4.3 48.7 3.1 73.4z" fill="#EF6FA3" p-id="2559"></path><path d="M854 319.3c13.4-72.9-83.7-61.6-80-150.6-1.5-1-2.9-2-4.4-2.9-1.1-0.7-2.2-1.5-3.4-2.2h-0.1l-3.3-2.1c-1.3-0.8-2.5-1.6-3.8-2.3l-1.5-0.9c-0.1 0-0.1-0.1-0.2-0.1l-3-1.8c-0.2-0.1-0.5-0.3-0.7-0.4 0 0-0.1 0-0.1-0.1-0.8-0.5-1.6-0.9-2.4-1.3-3.9-2.2-7.8-4.3-11.7-6.4-0.5-0.3-1-0.5-1.5-0.8-0.4-0.2-0.9-0.5-1.3-0.7-0.4-0.2-0.8-0.4-1.3-0.7-0.4-0.2-0.9-0.4-1.3-0.6-0.6-0.3-1.1-0.6-1.7-0.8-0.8-0.4-1.7-0.8-2.6-1.2-1.4-0.6-2.7-1.3-4-1.9-1.2-0.6-2.5-1.1-3.7-1.7l-3.3-1.5c-0.3-0.1-0.6-0.3-1-0.4-1.1-0.5-2.2-0.9-3.2-1.4-0.2-0.1-0.5-0.2-0.7-0.3-1.2-0.5-2.5-1-3.8-1.6-0.1 0-0.2-0.1-0.2-0.1-0.4-0.2-0.8-0.3-1.1-0.5-34.5 20.8-63.5 57.3-48.8 120.7 21.7 93.9 22.2 180.2-24.2 237.9-6.1 25.8-19.7 50.9-40.6 71.8-31.2 31.2-71.9 46.2-110 44.2-20.3 57.9 8.6 134.6-48.5 168.9-64.5 38.7-81-57.9-207.9-62.8 8.5 9.5 11.8 20.9 13.7 32.9 3.5 22.2 2.2 46.7 19.4 66 0.1 0.1 0.2 0.3 0.3 0.4 5.9 6.5 13.9 12.4 24.9 17.5 99 45.5 150.4 22 197.8-26.7 3.6-3.7 7.2-7.6 10.9-11.6 50.6-56.2 137.6-21.4 207.4-50.6 69.8-29.2 61.6-139.4 84.1-170.9s79.4-37.7 96.2-128.4c13.4-72.9-42.9-50.4-29.4-124z" fill="#FFB6CD" p-id="2560"></path><path d="M659.9 254.8c21.7 93.9 22.2 180.2-24.2 237.9 9.8-41.3 0.3-84.3-29.4-114-48.2-48.2-131.4-43.2-185.8 11.3-54.5 54.3-59.5 137.5-11.3 185.8 20.6 20.6 47.5 31.4 75.8 32.9-20.3 57.9 8.6 134.6-48.5 168.9-64.5 38.7-81-57.9-207.9-62.8-10.4-11.7-28.4-20.7-60.8-24.9-16.7-2.2-32.3-6.2-46.1-12.1l-1.2-4.2c-0.4-1.3-0.7-2.6-1.1-4l-1.2-4.5c-0.3-1.3-0.7-2.6-1-3.9-0.5-1.8-0.9-3.7-1.3-5.5-0.3-1.2-0.5-2.4-0.8-3.6-0.3-1.4-0.6-2.9-0.9-4.3v-0.1c-0.3-1.4-0.6-2.7-0.8-4.1-0.2-0.9-0.4-1.9-0.5-2.8-0.2-0.9-0.3-1.8-0.5-2.8l-0.6-3.3c-0.2-1.2-0.4-2.3-0.6-3.5l-0.3-1.8c-0.2-1.2-0.4-2.3-0.5-3.5-0.2-1.5-0.4-2.9-0.6-4.3v-0.1c-0.2-1.2-0.3-2.4-0.5-3.6-0.3-2.7-0.7-5.5-1-8.2l-0.3-3-0.3-3.6c-0.2-2.1-0.4-4.3-0.5-6.4l-0.3-4.5c-0.1-0.9-0.1-1.8-0.1-2.7-0.2-4.4-0.4-8.8-0.5-13.2v-1.9-2.7-8.4c0-1.4 0-2.7 0.1-4.1v-1c0-0.8 0-1.5 0.1-2.3 0-1.1 0.1-2.1 0.1-3.2 0-0.5 0-1 0.1-1.5 0-1.3 0.1-2.5 0.2-3.8 0-0.4 0-0.8 0.1-1.2 0.1-1.4 0.2-2.7 0.2-4.1 0-0.5 0.1-0.9 0.1-1.4 0-0.9 0.1-1.8 0.2-2.6 0.1-1.3 0.2-2.6 0.3-4v-0.2c0.1-1.4 0.2-2.8 0.4-4.2 0-0.5 0.1-1 0.2-1.5 0.1-1.3 0.2-2.6 0.4-3.9v-0.2c0.2-1.6 0.4-3.2 0.5-4.8 0.2-1.6 0.4-3.2 0.6-4.9v-0.1c0.6-4.7 1.3-9.3 2-14l0.9-5.4c0.3-1.5 0.5-3.1 0.8-4.6v-0.3c5.6-7.2 26.1-10.4 31.4-18.6 18.5-28.7 2.7-63.2-1.8-77.3 0-0.1 0.1-0.1 0.1-0.2v-0.1c10-21 20.1-41.5 32.9-62.3 0.1-0.1 0.1-0.2 0.2-0.3 15.8-25.8 35.7-52.2 64.1-81.2 1.4-1.5 2.8-2.9 4.3-4.3 11.5-11.5 23.3-22.2 35.6-32.3 1.1-0.9 2.2-1.8 3.2-2.6 0.5-0.4 1.1-0.9 1.6-1.3 3-2.4 6-4.7 9-7 6.2-4.8 12.6-9.4 18.9-13.8 3.2-2.2 6.4-4.4 9.6-6.5s6.5-4.2 9.8-6.2c1.6-1 3.3-2 4.9-3s3.3-2 4.9-2.9c1.6-1 3.3-1.9 5-2.9s3.3-1.9 5-2.8c1.7-0.9 3.3-1.8 5-2.7 1.5-0.8 3-1.6 4.6-2.4 0.9-0.5 1.7-0.9 2.6-1.3 1.2-0.6 2.3-1.2 3.5-1.8 3.2-1.6 6.4-3.2 9.5-4.7 1.1-0.5 2.2-1.1 3.4-1.6 1.2-0.6 2.4-1.1 3.6-1.7l3.9-1.8c1.9-0.8 3.8-1.7 5.6-2.5 1.6-0.7 3.2-1.4 4.7-2 15.4-0.6 30.8-1.7 46-4.2 25.6-4.3 51.7-16.7 78.3-28 0.3 0 0.7-0.1 1-0.1 0.5-0.1 0.9-0.1 1.4-0.1 1.4-0.1 2.8-0.3 4.3-0.4s3-0.3 4.5-0.4c0.8-0.1 1.7-0.1 2.5-0.2 1.2-0.1 2.4-0.2 3.6-0.2 1.8-0.1 3.5-0.2 5.3-0.3 3.5-0.2 7.1-0.3 10.6-0.4s7.1-0.1 10.6-0.1h4c1.7 0 3.4 0 5.2 0.1 1 0 1.9 0 2.9 0.1 0.6 0 1.2 0 1.8 0.1h1.5c0.9 0 1.8 0.1 2.6 0.1 1 0 1.9 0.1 2.8 0.1 1 0 2 0.1 2.9 0.2 1.1 0.1 2.1 0.1 3.2 0.2 0.9 0.1 1.9 0.1 2.8 0.2 1.2 0.1 2.3 0.2 3.5 0.3 0.8 0.1 1.7 0.1 2.5 0.2h0.1l3.3 0.3c0.8 0.1 1.5 0.2 2.3 0.2 2.8 0.3 5.5 0.6 8.3 1 1.2 0.2 2.4 0.3 3.7 0.5h0.3l4.2 0.6c1.5 0.2 2.9 0.4 4.4 0.7 1.5 0.2 2.9 0.5 4.4 0.7 1.1 0.2 2.3 0.4 3.4 0.6 0.6 0.1 1.3 0.2 1.9 0.3 1.1 0.2 2.3 0.4 3.4 0.6 1.6 0.3 3.3 0.7 4.9 1 1.3 0.3 2.5 0.5 3.8 0.8 1.4 0.3 2.9 0.6 4.3 1 1.2 0.3 2.5 0.6 3.7 0.9l1.2 0.3c1.2 0.3 2.5 0.6 3.7 0.9 1.4 0.4 2.8 0.7 4.2 1.1 0.3 0.1 0.5 0.1 0.8 0.2 2.6 0.7 5.2 1.4 7.8 2.2 1.4 0.4 2.8 0.9 4.2 1.3s2.8 0.9 4.2 1.3h0.2c2.8 0.9 5.5 1.8 8.2 2.8 4.2 1.5 8.3 3 12.4 4.6 1 0.4 1.9 0.8 2.9 1.2-34.5 20.6-63.5 57.1-48.8 120.6z" fill="#FFB6CD" p-id="2561"></path><path d="M397 242.2c18.5 47.4-69.3 122.2-100.2 128.4-30.9 6.2-63.4-20.4-11-94.9 22.3-31.8 98.1-67.3 111.2-33.5z" fill="#FFD4E4" p-id="2562"></path><path d="M883.3 443.5c-16.8 90.7-73.7 96.9-96.2 128.4S772.8 713.5 703 742.7s-156.7-5.6-207.4 50.6c-3.6 4-7.2 7.9-10.9 11.6-47.3 48.5-98.3 71.1-197.8 26.7-11.2-5-19.1-10.9-24.9-17.5-0.1-0.1-0.2-0.3-0.3-0.4-16.1-18.7-14.8-42.7-19.4-66-2.3-11.3-6-22.5-13.7-32.9 127 4.8 143.4 101.5 207.9 62.8 57.1-34.3 28.2-111 48.5-168.9 8.8-25.3 27.1-46.9 65.9-60 37.7-12.7 65.3-31.8 84.8-56 46.4-57.7 46-144 24.2-237.9-14.7-63.4 14.3-99.9 48.8-120.7 0.4 0.2 0.8 0.3 1.1 0.5 0.1 0 0.2 0.1 0.2 0.1 1.3 0.5 2.5 1 3.8 1.6 0.2 0.1 0.5 0.2 0.7 0.3 1.1 0.4 2.2 0.9 3.2 1.4 0.3 0.1 0.6 0.3 1 0.4l3.3 1.5c1.2 0.5 2.5 1.1 3.7 1.7 1.3 0.6 2.7 1.3 4 1.9 0.9 0.4 1.7 0.8 2.6 1.2 0.5 0.3 1.1 0.5 1.7 0.8 0.4 0.2 0.9 0.4 1.3 0.6 0.4 0.2 0.9 0.4 1.3 0.7 0.5 0.2 0.9 0.5 1.3 0.7 0.5 0.3 1 0.5 1.5 0.8 3.9 2 7.8 4.2 11.7 6.4 1 0.6 2.1 1.2 3.2 1.8l3 1.8c0.1 0 0.1 0.1 0.2 0.1l1.5 0.9c1.3 0.8 2.6 1.5 3.8 2.3l3.3 2.1h0.1c1.1 0.7 2.2 1.4 3.4 2.2 1.5 1 2.9 1.9 4.4 2.9-3.7 89 93.4 77.7 80 150.6-13.5 73.5 42.8 51 29.3 124.1z" fill="#FF99BE" p-id="2563"></path><path d="M633.1 820.3c-6-2.6-12.6 1.2-17.4 4-1.2 0.7-2.3 1.3-3.1 1.7-5.7 2.6-11.5 5.2-17.3 7.5-0.6 0.2-1.1 0.4-1.7 0.7-1.8 0.6-3.8 1.4-5.6 2.6-1.9 1.3-3.3 2.9-4.5 4.4-0.5 0.6-1 1.2-1.4 1.6-3.1 3.1-6.1 5.7-9.3 7.8-12.8 8.5-30 11.3-51.1 8.4-8.5-1.2-17 0.4-25.2 2-3.6 0.7-6.9 1.3-10.2 1.7-12.8 1.6-25.7 2.5-38.3 2.7-24.3 0.5-48.5-1.3-71.9-5.5-78.3-13.9-148.4-54.5-197.3-114.2-0.5-0.6-1.1-1.5-1.9-2.6-3.5-5-8.3-11.9-14.9-12.3-2.2-0.1-5.4 0.4-8.4 3.8-6.8 7.7 0.5 15.8 4 19.7 0.6 0.7 1.2 1.3 1.6 1.8 5.1 6.3 10.3 12.3 15.2 17.9 3.2 3.6 6.6 7 9.9 10.3l1.8 1.8c0.8 0.8 1.5 1.6 2.3 2.4 2.2 2.3 4.6 4.9 7.5 6.9 2.1 1.9 4.2 3.6 6.3 5.3 2.9 2.3 5.6 4.6 8 7l0.6 0.6 0.7 0.4c1.9 1 4.1 2.8 6.2 4.6 1.3 1.1 2.7 2.3 4 3.3 6.1 4.6 12.4 9 18.7 13 12.4 8.1 25.4 15.4 38.6 21.7 27.2 13.1 56.6 22.7 87.4 28.7 23.8 4.6 48.4 7 73.3 7 8.8 0 17.6-0.3 26.4-0.9 7.9-0.5 16-1.3 24.7-2.4 3.6-0.5 7.2-1.1 10.7-1.8 4.8-0.9 9.3-1.7 13.8-2.1 1.5-0.1 3.4 0.2 5.5 0.6l3.9 0.6c4.2 0.4 8.6 0.6 13 0.6 8.4 0 16.3-0.8 23.6-2.6 8.3-2 15.9-5.1 22.6-9.3 3.5-2.2 6.9-4.8 10.1-7.6 1.2-1.1 2.3-2.3 3.4-3.5 1.4-1.6 2.9-3.2 4.2-3.9 4.3-2.4 9-4.3 14-6.3 3.5-1.4 7.2-2.9 10.7-4.5 0.6-0.3 1.4-0.6 2.2-0.9 3.5-1.4 7.8-3.2 10.2-6.8 1.8-2.7 2.3-5.8 1.4-8.6-1.2-3.3-3.7-5.9-7-7.3zM893.1 436.9c0-16.8-0.8-31.9-2.3-46.2-0.7-6.3-1.7-12.6-2.7-18.8l-0.2-1.4c-0.5-3.2-1.2-6.4-1.8-9.5l-0.5-2.6c-0.2-1.1-0.5-2.2-0.8-3.2-0.4-1.6-0.9-3.3-0.9-4.5v-0.4l-0.1-0.4c-2.8-15.9-8.4-31.9-13.4-45.7-5.8-16.1-13.3-32.5-23-50.1-14.6-26.6-34.1-52.3-57.8-76.1-7-7-15.7-15.8-25-22.4-4-2.9-7.9-6-11.8-9-5.3-4.2-10.8-8.6-16.7-12.5-27.5-18-57.7-32.2-89.7-42-65.2-20-137-21.8-207.5-5.3-67.8 15.9-132.9 48.7-188.4 94.8-52.6 43.7-95.7 98.4-124.7 158.1-32 66-47 138.6-43.3 210.1 0.8 14.7 2.3 29.5 4.7 44 0.4 2.4 0.9 4.8 1.3 7.1l0.3 1.5c0.1 0.5 0.2 1.1 0.3 1.7 0.4 2.9 0.9 6.4 3.4 9.2 2.2 2.4 5.2 3.7 8.3 3.7 2.3 0 4.6-0.7 6.6-2.2 5.4-4.1 4.3-10.3 3.9-12.3-6-32.8-8.2-62.5-6.9-90.6 3.1-67.8 24-135.8 60.5-196.5 34.3-57.2 81.9-107.1 137.5-144.4 60.1-40.3 128.1-65.1 196.9-71.5 68.9-6.4 136 5.6 193.9 34.9 7 3.5 13.9 7.3 20.6 11.3 1.7 1 3.4 2.2 5.2 3.4 3.2 2.2 6.6 4.5 10.2 6.1l1 0.4h0.1c0.6 0.4 1.6 1.3 2.1 1.7 0.7 0.6 1.2 1 1.8 1.4 2.2 1.5 4.6 3.2 6.9 5l3.6 2.7c3.7 2.7 7.1 5.3 10.2 8.2l0.3 0.3c21.7 19 38.9 37.3 52.4 56.1 17.7 24.6 31.9 50.9 42.2 78.3 22 58.8 27.3 125.4 15.3 192.7-0.9 4.9-1.9 9.9-3 14.8-0.4 1.9-0.8 3.7-1.2 5.6-0.9 4.1 0 8.1 2.2 10.8 2 2.4 4.9 3.7 8.2 3.7 4.2 0 7.9-2.4 9.9-6.5 2.3-4.6 3.1-10.3 3.9-15.3 0.3-1.7 0.5-3.4 0.8-4.8 4.9-25.4 7.3-49.9 7.4-72.8v-0.2c-0.2 0-0.2-0.2-0.2-0.4z" fill="#934A19" p-id="2564"></path><path d="M583.4 508.8c2.1 3.2 5.5 5.1 9.3 5.1h0.1c8.5 0 11.5-8.8 13.1-13.5 0.2-0.7 0.5-1.4 0.7-2 4.4-11.5 7.3-23.3 8.7-35.2 2.6-22.2-0.4-44.6-8.7-64.6-4.3-10.3-9.9-20-16.8-28.6-0.5-0.6-1-1.3-1.6-2.1-2.8-3.7-6.2-8.3-10.8-10.2-4-1.7-8.5-0.8-11.7 2.3-3.2 3.1-4.2 7.8-2.6 12 1 2.5 2.8 4.3 4.2 5.7 0.4 0.4 0.8 0.7 1.1 1.1 1.8 2 3.7 4.2 5.5 6.5 2.3 3 4.4 6.2 6.6 9.9 5.4 9.4 9.3 19.5 11.5 30.1 4.8 23.5 1.5 49.4-9.2 73.1-1.7 3.4-1.4 7.2 0.6 10.4zM402.5 386.5c23.1-23.1 53.9-37.4 84.4-39.1 0.8 0 2 0 3.3 0.1 5.6 0.2 17.3 0.7 18.6-9.9 0.5-4.4-1.2-7.2-2.7-8.7-4.6-4.8-13.2-4-18.8-3.5-0.7 0.1-1.4 0.1-2 0.2-16.2 1-32.3 4.8-47.8 11.3-28.6 12-53.9 33.2-71.3 59.7-18.1 27.5-26.7 58.5-24.9 89.5 1.9 31.2 14.9 60.1 36.9 81.3 22 21.2 52.4 32.9 85 32.9 4.1 0 8.3-0.2 12.5-0.6 9.5-0.9 19-2.7 28.2-5.5 5.6-1.7 10-3.2 14-5 8.6-3.7 8.5-10.2 8-12.8-0.8-4.4-3.1-6.6-5-7.6-5.2-2.8-11.6-0.1-16.2 1.8-1 0.4-1.9 0.8-2.5 1-6.8 2.3-13.4 3.9-19.9 4.9-32.3 4.9-63.5-3.2-85.7-22.4-20.5-17.7-32.2-43.4-33.1-72.3-0.8-27 8-55.5 24.1-78 4.6-6.1 9.6-11.9 14.9-17.3z" fill="#934A19" p-id="2565"></path><path d="M751.5 311.8c-6.6 3.8-15.1 1.6-18.9-5.1l-27.4-47.5c-3.8-6.6-1.6-15.1 5.1-18.9 6.6-3.8 15.1-1.6 18.9 5.1l27.4 47.5c3.8 6.6 1.5 15.1-5.1 18.9z" fill="#F9CB40" p-id="2566"></path><path d="M445.4 232.7c-3.8-6.6-1.6-15.1 5.1-18.9l47.5-27.4c6.6-3.8 15.1-1.6 18.9 5.1 3.8 6.6 1.6 15.1-5.1 18.9l-47.5 27.4c-6.6 3.8-15.1 1.6-18.9-5.1zM580.2 646.7c2-7.4 9.6-11.8 17-9.8l52.9 14.2c7.4 2 11.8 9.6 9.8 17s-9.6 11.8-17 9.8L590 663.6c-7.4-1.9-11.8-9.5-9.8-16.9z" fill="#8EB23F" p-id="2567"></path><path d="M268.4 452.1c-2 7.4-9.6 11.8-17 9.8l-52.9-14.2c-7.4-2-11.8-9.6-9.8-17s9.6-11.8 17-9.8l52.9 14.2c7.4 2 11.8 9.6 9.8 17zM766.6 447.9c3.8 6.6 1.6 15.1-5.1 18.9L714 494.3c-6.6 3.8-15.1 1.6-18.9-5.1-3.8-6.6-1.6-15.1 5.1-18.9l47.5-27.4c6.6-3.9 15-1.6 18.9 5z" fill="#ED4233" p-id="2568"></path><path d="M325.7 609.2c3.8 6.6 1.6 15.1-5.1 18.9l-47.5 27.4c-6.6 3.8-15.1 1.6-18.9-5.1-3.8-6.6-1.6-15.1 5.1-18.9l47.5-27.4c6.6-3.8 15-1.6 18.9 5.1z" fill="#F3B00C" p-id="2569"></path></svg>