<?xml version="1.0" standalone="no"?><!DOCTYPE svg PUBLIC "-//W3C//DTD SVG 1.1//EN" "http://www.w3.org/Graphics/SVG/1.1/DTD/svg11.dtd"><svg t="1587110671902" class="icon" viewBox="0 0 1024 1024" version="1.1" xmlns="http://www.w3.org/2000/svg" p-id="2710" xmlns:xlink="http://www.w3.org/1999/xlink" width="64" height="64"><defs><style type="text/css"></style></defs><path d="M747.9 146.8c-3.4 6.5-6.2 13.4-8.9 20.3-30.4 10.6-53.6 21.3-60.4 30-2.7 3.4-5.5 8.2-8.5 14-40.2-2.9-81.5 8.4-68.1 44.9 11.8 32-30.5 39.2-35.2 55.1-16.2 3.2-33.3 8-50.5 14.2-8.1-1.4-16.2-2-23.8 0.5-9.9 3.3-15.3 10.3-19.2 18.7-45.8 24.5-86.9 60.9-106.4 110-32.6 82.2-55.8 50.3-76 55.4-20.2 5.1-49.6 25.7-48.1 77.5 0.8 27.7-28.5 39.2-59.5 49.6-23.5-3.1-44-1.4-50.3 13.5C192.4 471.3 527.7 146 737.5 146c3.6-0.1 7 0.2 10.4 0.8z" fill="#FFD066" p-id="2711"></path><path d="M825.6 255l-47.4 90.4-66.9 127.5c-1.6 1.6-3.2 3.3-4.8 4.9-1.7 1.7-3.3 3.4-5 5.2-1.3 1.4-2.7 2.8-4.1 4.2-2.9 2.9-5.8 5.9-8.8 8.9-10.2 10.4-20.8 20.9-31.7 31.6-1 1-2.1 2-3.1 3-22 21.5-45.2 43.4-68.9 65.1-2.8 2.5-5.5 5-8.3 7.5-12.6 11.5-25.4 22.8-38.2 34-2 1.7-4 3.5-6 5.2-22.4 19.4-44.8 38.3-66.9 56l-3 2.4c-16 12.8-31.8 25.1-47.1 36.6-1 0.7-1.9 1.4-2.9 2.1-1.7 1.3-3.4 2.5-5.1 3.8-10.8 8-21.4 15.6-31.8 22.6-1.3 0.9-2.5 1.7-3.7 2.6-1 0.7-2 1.3-2.9 2-5.9 4-11.8 7.9-17.5 11.5-0.6 0.4-1.2 0.8-1.8 1.1l-0.9 0.6c-0.7 0.5-1.5 1-2.2 1.4-1.2 0.8-2.4 1.5-3.5 2.2-1.2 0.7-2.3 1.4-3.4 2.1-1.2 0.7-2.3 1.4-3.4 2.1-1 0.6-2.1 1.2-3.1 1.9-6.9 4.1-13.6 7.9-20 11.4-1.1 0.6-2.1 1.1-3.1 1.7-4.2 2.2-8.3 4.3-12.2 6.1-1 0.5-1.9 0.9-2.9 1.3s-1.9 0.9-2.9 1.3c-0.9 0.4-1.7 0.8-2.6 1.2-3.5 1.5-7 2.9-10.3 4.2-0.5 0.2-1 0.4-1.6 0.6-1.7 0.6-3.3 1.2-4.9 1.7-0.7 0.2-1.5 0.5-2.2 0.7-1.3 0.4-2.7 0.8-4 1.2-0.5 0.1-1 0.3-1.4 0.4-1.3 0.3-2.5 0.6-3.7 0.9-0.5 0.1-1 0.2-1.6 0.3-0.5 0.1-1.1 0.2-1.6 0.3-0.6 0.1-1.2 0.2-1.7 0.3-0.7 0.1-1.5 0.2-2.2 0.3-0.6 0.1-1.2 0.2-1.9 0.2-0.7 0.1-1.3 0.1-2 0.2-0.2 0-0.4 0-0.7 0.1-0.6 0-1.1 0.1-1.7 0.1h-1.9c-10.5 0-20.1-0.7-28.9-2.1-0.5-0.1-0.9-0.1-1.4-0.2-27.4-4.5-46.6-15.1-60.1-28.6-16.7-16.8-24.7-38-28.4-57.6-2.3-12-3-23.4-3.2-32.7-0.1-2.7-0.1-5.2-0.1-7.5 0-1.5 0-3.1 0.1-4.7s0.2-3.1 0.3-4.7v-0.2c0.1-0.8 0.1-1.5 0.2-2.3s0.2-1.6 0.3-2.5v-0.1l0.3-2.4c0.1-0.8 0.3-1.7 0.4-2.5 0.1-0.9 0.3-1.7 0.4-2.6 0.2-0.9 0.3-1.7 0.5-2.6 0.2-0.9 0.4-1.7 0.5-2.6 0.9-4.4 2.1-8.9 3.4-13.5 0.2-0.1 0.4-0.3 0.6-0.4 13.7-9 33.3-14.9 52.2-21.3 31-10.4 60.4-22 59.5-49.6-1.5-51.7 27.9-72.3 48.1-77.5 20.2-5.1 43.4 26.8 76-55.4 19.5-49.2 60.6-85.6 106.4-110 14.1-7.5 28.5-13.9 43-19.2 17.2-6.3 34.3-11 50.5-14.2 62.6-12.4 86.9-69.3 103.2-100 3.1-5.7 5.8-10.5 8.5-14 6.8-8.7 30-19.4 60.4-30 10.3-3.6 21.3-7.2 32.9-10.6 0.4 0.3 0.9 0.6 1.3 0.9 0.5 0.4 1.1 0.7 1.6 1.1 0.3 0.2 0.6 0.5 0.9 0.7 0.4 0.3 0.8 0.6 1.2 1 0.4 0.3 0.8 0.6 1.2 1 0.4 0.3 0.8 0.7 1.2 1s0.8 0.7 1.2 1c0.4 0.4 0.8 0.7 1.2 1.1 1.2 1.1 2.4 2.2 3.5 3.4l1.3 1.3c0.7 0.7 1.4 1.5 2.1 2.2 0.4 0.4 0.7 0.8 1.1 1.2 0.4 0.4 0.7 0.8 1.1 1.3 1.1 1.3 2.1 2.6 3.2 4 0.3 0.4 0.7 0.9 1 1.4s0.7 0.9 1 1.4c0.3 0.4 0.6 0.8 0.8 1.2 1.4 2 2.7 4 4 6.1 0.6 1 1.2 2 1.9 3l0.9 1.5c1 1.8 2 3.6 2.9 5.4l0.9 1.8 0.9 1.8c0.1 0.2 0.2 0.3 0.2 0.5 0.4 0.8 0.8 1.6 1.2 2.5 0.9 1.9 1.7 3.8 2.6 5.8 0.2 0.5 0.4 0.9 0.6 1.4 0.3 0.8 0.6 1.5 0.9 2.3 0.1 0.2 0.1 0.3 0.2 0.5 0.4 1 0.8 1.9 1.1 2.9 0.1 0.2 0.2 0.5 0.3 0.7l1.2 3.3c0.3 1 0.7 1.9 1 2.9 0.5 1.7 1.1 3.3 1.6 5 0.3 1 0.6 2.1 0.9 3.1 0.3 1.2 0.7 2.4 1 3.6 0 0.2 0.1 0.3 0.1 0.5 0.3 1.2 0.6 2.3 0.9 3.5 0.6 2.5 1.2 5.1 1.8 7.7 0.3 1.3 0.5 2.6 0.8 3.9l0.3 1.5c0.5 0.6 0.7 1.4 0.8 2.2z" fill="#CA7B38" p-id="2712"></path><path d="M699.5 214.9c-75.8 66-165.1 163.5-254.6 243.6-66.5 59.5-136.7 116.9-196.3 167.6 4.1-30-0.4-82.9 40.8-99.5 41.8-16.8 65.1-5.5 88.4-27.1 23.2-21.6 21.9-31 25.1-48.4 7.4-40.4 39.4-51.5 49.4-60.1 12.7-11 14.2-31.1 21.2-46.5 3.8-8.4 9.3-15.4 19.2-18.7 7.6-2.5 15.8-1.9 23.8-0.5 21.5 3.8 42.4 13.6 50.5-14.2 4.7-15.9 47-23.1 35.2-55.1-13.5-36.5 27.8-47.7 68.1-44.9 7.7 0.5 15.3 1.6 22.5 3.1 2.2 0.5 4.5 0.7 6.7 0.7zM869.8 149.8c-6.8-3.5-14.5-6.5-23.1-9-30.2-8.5-70.4 12.3-117.1 49.1 3.3-7 6.3-14.9 9.5-22.9 2.7-6.8 5.6-13.8 8.9-20.3 5.2-10.2 11.7-19.4 20.6-25.7 33.4-23.6 79.6-0.1 101.2 28.8z" fill="#8EB23F" p-id="2713"></path><path d="M445.9 625.5c-61 56.8-119.9 109.8-170.1 152-20.6 17.3-39.8 32.8-57 46-1 0.8-2.1 1.6-3.1 2.4-29.8 22.7-53.6 38.1-69 43.7-7.5 2.8-13 3.2-16.1 0.9C66.3 825.3 58 746 91 722.7c20.8-14.6 27.7-13.3 33-15.7 3.1-1.4 5.8-4.2 10.3-12.2 10.6-18.5-3.8-23.5-3.2-36.6 0-1 0.2-2 0.4-3.1 0.3-1.4 0.8-3 1.5-4.6 6.3-14.9 26.8-16.6 50.3-13.5 13.9 1.8 28.9 5.3 42.5 8.6-73 63.1-125 113.9-125 142.6 0 25.8 9.2 48.1 24.2 64.3 0.9-5.5 3.8-11.5 9.3-18.2 24.8-30.4 46.5-27.3 46.5-27.3s-37.2-21.7-23.2-48.1c18.8-35.6 59.8-37.5 112.6-26.6 52.7 10.9 56.4 8 62.7-54 6.2-62 66.7-114.7 102.3-111.6 25.8 2.2 10.2 41.8 10.7 58.8z" fill="#8EB23F" p-id="2714"></path><path d="M896.8 170.3c-6.3 6-12.4 13.9-18.1 22.6v0.1c-0.4 0.6-0.8 1.2-1.1 1.8-15.7 24.5-28.7 54.8-37.7 69.5-7.3 12-18.4 10.5-32.4 6.8-18.4-5-41.9-13.8-68.4-0.6-37.3 18.7-37.7 77.3-44.4 114.9-1.7 9.3-3.7 17.3-6.8 23.1-15.5 29.5-26.4 48.1-68.2 54.3-1.4 0.2-2.8 0.5-4.2 0.7-33 6.8-50.4 33.2-54.1 52.5-0.7 3.5-0.9 6.7-0.6 9.6 0.6 8.1-4.2 5.7-11.8 2.4-10.7-4.7-27-11.2-41.9 6-13 15.1-18.1 37.2-24 56.7-5.6 18.6-11.8 35-26.2 41.1-8.1 3.4-10.7 0.2-10.9-6.2-0.6-17 15-56.6-10.8-58.9-35.7-3.1-96.1 49.6-102.3 111.6-6.2 62-9.9 64.9-62.7 54-52.7-10.9-93.7-9-112.6 26.6-14 26.4 23.2 48.1 23.2 48.1s-21.7-3.1-46.5 27.3c-5.5 6.7-8.4 12.8-9.3 18.2-15-16.2-24.2-38.5-24.2-64.3 0-28.7 52-79.6 125-142.6 7.4-6.4 15-12.9 22.7-19.5 59.6-50.7 129.8-108.1 196.3-167.6 89.6-80.1 178.9-177.5 254.6-243.6 10.3-8.9 20.3-17.3 30-25 46.7-36.8 87-57.7 117.1-49.1 8.6 2.4 16.3 5.5 23.1 9 11.3 5.7 20.2 12.7 27.2 20.5z" fill="#ED4233" p-id="2715"></path><path d="M821.4 227.6c-2.4 8.2-11.1 12.9-19.3 10.5-29.3-8.6-81.4-15.1-96.3 4.2-4.6 6-6.7 13.4-7.4 21.9-0.9-14.8 0.1-28 7.4-37.4 14.9-19.3 67-12.8 96.3-4.2 8.2 2.4 16.8-2.3 19.3-10.5 0.7-2.3 0.8-4.6 0.4-6.9 2 3.7 0.8 18.4-0.4 22.4zM690.2 366.4c-17.2 21.6-48.3 14.7-75.7 8.7-23.1-5.1-46.9-10.4-56.9 0.1-3.6 3.8-5.5 9.2-6.2 15.7-1.1-13.2-0.1-24.6 6.2-31.2 10-10.5 33.9-5.2 56.9-0.1 27.4 6 58.4 12.9 75.7-8.7 7.8-9.7 10.9-21.1 11.7-33.2 0.9 17.7-0.6 34.9-11.7 48.7zM402.2 626.1c-4.4 20.1-15.4 33.4-32.6 39.6-24.4 8.8-50.9 6.1-74.3 3.7-25-2.5-46.6-4.7-58.8 6.6-9.8 9.2-17.6 33.2-21.5 65.8-3.2 27-2.7 51.3-2.7 51.6 0.2 8.5-6.6 15.7-15.2 15.8h-0.3c-8.4 0-15.3-6.8-15.5-15.2 0-0.5-0.1-5.9 0.1-14.3 0.8 7.8 7.4 14 15.4 14h0.3c8.5-0.2 15.4-7.3 15.2-15.8 0-0.2-0.5-24.5 2.7-51.6 3.9-32.6 11.7-56.6 21.5-65.8 12.1-11.4 33.7-9.2 58.8-6.6 23.3 2.4 49.8 5.1 74.3-3.7 17.3-6.2 28.3-19.5 32.6-39.6 1.4-6.4 2.1-13.1 2.3-19.9 0.3 12.2 0.1 24.3-2.3 35.4zM544.9 512.9c-19 16.5-49.4 14.1-78.8 11.7-23.1-1.8-49.2-3.9-57 5.4-3.6 4.3-5.1 12.3-5.5 21.7-0.5-15.5-0.1-30.7 5.5-37.2 7.9-9.3 34-7.2 57-5.4 29.4 2.3 59.8 4.7 78.8-11.7 9.7-8.4 13.8-19.5 14.8-32 1.3 18.7-1.2 35.8-14.8 47.5z" fill="#F4B04E" p-id="2716"></path><path d="M821.4 212.1c-2.4 8.2-11.1 12.9-19.3 10.5-29.3-8.6-81.4-15.1-96.3 4.2-7.3 9.4-8.3 22.6-7.4 37.4 0.4 5.9 1 12 1.7 18.3 1.3 11.8 2.5 23.9 1.7 35.3-0.8 12.1-3.9 23.4-11.7 33.2-17.2 21.6-48.3 14.7-75.7 8.7-23.1-5.1-46.9-10.4-56.9 0.1-6.2 6.5-7.2 17.9-6.2 31.2 0.7 8.9 2.4 18.7 4 28.3 2.7 15.8 5.5 32 4.2 46.3-1.1 12.5-5.1 23.6-14.8 32-19 16.5-49.4 14.1-78.8 11.7-23.1-1.8-49.2-3.9-57 5.4-5.5 6.5-6 21.7-5.5 37.2 0.1 3.5 0.3 7.1 0.4 10.5 0.4 9.4 0.8 19.1 0.5 28.4-0.2 6.9-0.9 13.6-2.3 19.9-4.4 20.1-15.4 33.4-32.6 39.6-24.4 8.8-50.9 6.1-74.3 3.7-25-2.5-46.6-4.7-58.8 6.6-9.8 9.2-17.6 33.2-21.5 65.8-3.2 27-2.7 51.3-2.7 51.6 0.2 8.5-6.6 15.7-15.2 15.8h-0.3c-8 0-14.6-6.2-15.4-14-0.1-0.4-0.1-0.8-0.1-1.2 0-1.1-0.5-26.3 2.9-55.7 4.9-41.7 15.4-70.3 31.1-85 22.4-21 53.3-17.9 83.1-14.8 21.1 2.1 42.8 4.3 60.7-2 10-3.6 13.6-13.3 14.3-31.7 0.3-7.2 0.1-15.7-0.4-25.6-0.2-4.1-0.4-8.2-0.5-12.3-0.6-21.4 0.5-42.4 12.9-56.9 18.2-21.4 51.2-18.8 83.1-16.3 21.9 1.7 46.8 3.7 56-4.2 2.1-1.9 3.4-5 3.9-9.1 1.5-10.5-1.3-26.7-3.6-40.5-1.9-11-3.8-22.5-4.5-33.8-1.2-19.5 1.4-38.2 14.8-52.3 22.1-23.1 56-15.6 86-9 16.7 3.7 39.6 8.7 44.8 2.3 2.8-3.5 4.2-8.4 4.8-14.1 0.9-9-0.3-20.1-1.5-31.7-0.8-7.1-1.5-14.4-1.9-21.8-1-19.5 1-39.4 13.9-56.1 14.6-18.8 41.6-26.8 80.1-23.8 26.1 2.1 48.5 8.6 49.5 8.9 4 1.2 7.2 3.8 9.2 7.5 0.8 1.6 1.4 3.2 1.7 4.9 0.7 2 0.6 4.3-0.1 6.6z" fill="#FFE39C" p-id="2717"></path><path d="M916.8 256.8c-2.5 1.6-5.1 3.1-7.8 4.4-7.1 3.4-15.2 9.5-24.3 17.8 4.2-10.9 10.7-17.8 20.3-18.1-8.3-1.9-17.7-2.3-27.9-2.3-45 0-178.2 193.6-276.1 295.6-180.5 188.2-414.6 224.3-388.8 306.4 1.9 6 3.8 11.4 5.8 16.4 2.7 6.7 5.5 12.5 8.7 17.5-39.1 2.2-106.9-9.3-101.6-42 0.9-5.5 3.8-11.5 9.3-18.2 24.8-30.4 46.5-27.3 46.5-27.3s-37.2-21.7-23.2-48.1c18.8-35.6 59.8-37.5 112.6-26.6 52.7 10.9 56.4 8 62.7-54 6.2-62 66.7-114.7 102.3-111.6 35.7 3.1-7.8 77.5 21.7 65.1s24.8-68.2 50.2-97.8c25.4-29.6 55.2 10.9 53.7-8.4-1.5-19.4 17-56.6 58.9-62.8 41.9-6.2 52.7-24.8 68.2-54.3s4.6-114.7 51.2-138c46.5-23.3 83.7 21.7 100.8-6.2 12.5-20.4 32.7-70.8 56.9-93.9 9-8.5 18.5-13.3 28.4-11.5 34.3 6.4 32.7 71.1-8.5 97.9z" fill="#8EB23F" p-id="2718"></path><path d="M884.7 279c-9.8 25.5-6.5 72.4 1 102.7 15.3 61.6-53.6 35.6-98.5 77.5-45 41.9-1.7 168.5-94.2 181.3-88.3 12.3-45.9 51-128.1 105.3-46.3 30.6-98.7 12.6-174.7 65.3s-4.7 83.7-65.1 99.3c-18.2 4.7-61 10.4-90.4-7.8 15.7 18 37.2 23 78.5 23.7-47.5-0.7-70.7-6.5-86.5-31.8-5.5-8.7-10-19.8-14.4-33.8-25.9-82.2 208.2-118.3 388.7-306.5 97.9-102.1 231.1-295.6 276.1-295.6 10.2 0 19.6 0.4 27.9 2.3-9.6 0.2-16.2 7.2-20.3 18.1z" fill="#FFD066" p-id="2719"></path><path d="M940.9 364.9c-0.1 0.9-0.2 1.9-0.3 2.8-21.1 208.7-349 558.7-615.6 558.7H315c-42.6-0.6-64.5-5.5-80.4-23.8 29.4 18.3 72.2 12.5 90.4 7.8 60.5-15.6-10.9-46.6 65.1-99.3s128.4-34.7 174.7-65.3c82.2-54.3 39.8-93 128.1-105.3 92.4-12.8 49.2-139.5 94.2-181.3 45-41.9 113.9-15.9 98.5-77.5-10.8-43.2-12.8-120 19.3-120.7 1.3 0 2.6 0.1 4 0.3 3.9 0.6 8.1 1.7 12.2 3.2 3.8 3.7 7.2 8.1 10 13.4 9.7 17.4 13.8 44.9 9.8 87z" fill="#F3B00C" p-id="2720"></path><path d="M95.1 697.9c-11.9 8.4-18.2 24.3-18.3 43.2 3.2-7.7 7.9-14 14.1-18.4 20.8-14.7 27.7-13.3 33-15.7-0.1-2.7-0.1-5.2-0.1-7.5 0-5.1 0.4-10.5 1.2-16.1-4.9 1.6-12.2 2-29.9 14.5zM749.1 117.2c-8.6 6.1-14.8 15-19.9 24.8-3.3-0.6-6.6-0.9-10-0.9-202.4 0-526 313.9-583.4 486.9v0.1c-0.7 1.6-1.1 3.1-1.4 4.5-4.5 14.5-7 27.9-7.3 40 1.2-5.6 2.7-11.5 4.6-17.5 0.3-1.5 0.8-3 1.5-4.7v-0.1C192.5 471.2 527.8 146 737.5 146c3.6 0 7 0.3 10.4 0.9 5.2-10.2 11.7-19.4 20.6-25.7 9.9-7 20.8-9.9 31.9-9.7-17.2-5.7-35.7-5.3-51.3 5.7zM900.2 153.7c-6.1-1.2-12.2 0.4-18 3.8 5.5 4 10.3 8.3 14.5 12.9 5.2-4.9 10.5-8.6 16-10.5-3.3-3.1-7.5-5.3-12.5-6.2z" fill="#FFFFFF" p-id="2721"></path><path d="M910.8 334.9c-6.2-0.6-11.7 3.9-12.3 10.1-4.8 47.1-26.8 104.1-63.7 164.6-36.4 59.7-85.2 119.8-141.3 173.8C635 739.8 571 787 508.5 819.9c-69 36.3-134 54.7-193.4 54.7-50.2 0-69.3-3.7-83.9-25.8-1.7-2.5-4.2-4.2-7.1-4.8-2.9-0.6-6 0-8.5 1.6-5.2 3.4-6.6 10.4-3.2 15.6 10.1 15.3 22.1 24.4 39 29.7 14.4 4.4 32.8 6.3 63.6 6.3 63.1 0 131.7-19.3 203.9-57.3C583.3 806 649 757.6 709 699.8c57.4-55.3 107.5-116.9 144.9-178.3 38.7-63.4 61.8-123.6 66.9-174.1 0.7-6.3-3.8-11.8-10-12.5zM193.8 500.7c-2.5-1.7-5.5-2.3-8.4-1.8-3 0.6-5.5 2.2-7.2 4.7-28.3 41.3-48.2 78.9-59.1 111.6-0.8 1.9-1.4 3.8-1.8 5.7-5 16.3-7.6 31.3-7.7 44.6-6.3 1.9-14.4 5.4-27.1 14.4-14.7 10.3-23 29.5-23 52.7 0 31.6 16.1 76.7 61.3 108.5 1.9 1.3 4.2 2.1 6.5 2.1 3.7 0 7.1-1.8 9.2-4.8 1.7-2.5 2.4-5.5 1.9-8.4-0.5-3-2.2-5.6-4.6-7.3-16.7-11.7-30.3-26.9-39.4-44.1-8-15-12.4-31.3-12.4-46 0-15.7 4.9-28.2 13.5-34.3 13.3-9.4 19.7-11 23.9-12.1 2-0.5 4-1 6.2-2 4.1-1.9 6.7-6 6.6-10.5 0-2.2-0.1-4.4-0.1-7 0-11.4 2.3-24.7 6.9-39.5 0.1-0.3 0.2-0.7 0.3-1 0.2-0.7 0.4-1.5 0.7-2.3 0-0.1 0.1-0.2 0.1-0.3 0.1-0.2 0.2-0.5 0.3-0.8 10.2-30.8 29.2-66.6 56.4-106.4 1.7-2.5 2.3-5.5 1.8-8.4-0.6-3-2.3-5.6-4.8-7.3z m-58.2 120.6zM271.7 415.8c3.2 0 6.2-1.3 8.3-3.7 64.9-71.3 141-137 214.2-185 83.8-54.9 159.6-84 219.3-84 2.7 0 5.4 0.2 8.1 0.7 4.9 0.9 9.7-1.5 12-5.9 5.1-9.9 10.3-16.5 16.4-20.8 15.2-10.8 32.4-7.7 44.2-3.3 14.6 5.5 28.9 16.2 38.1 28.6 1 1.4 2.4 2.5 3.9 3.3 9 4.6 16.6 10.5 22.8 17.4 2 2.3 4.9 3.6 8 3.7 3.1 0.1 6-1 8.2-3.1 6.8-6.5 12.5-9.1 17.5-8.2 8.8 1.7 12.2 9.9 13.5 16.6 3.5 17.5-4.3 43.6-25.6 57.5-2.5 1.6-4.2 4.1-4.8 6.9-0.2 0.9-0.4 1.8-0.7 2.7-1.6 6 2 12.2 8 13.8 2.9 0.8 5.9 0.4 8.6-1.1 2.3-1.4 4.1-3.4 5-6 28.3-20.8 36.4-54.9 31.8-78.2-3.7-18.8-15.2-31.3-31.5-34.4-9.6-1.8-19.2 0.6-28.7 7.1-5.8-5.1-12.3-9.7-19.4-13.5-12.2-15.4-30.1-28.3-48.3-34.7-23.3-8.2-45.8-5.9-63.5 6.6-7.5 5.3-13.8 12.4-19.6 22-1.3-0.1-2.6-0.1-3.8-0.1-79.8 0-168.3 46.5-228.5 85.6-75.6 49-154.3 116.8-221.7 190.8-4.2 4.6-3.8 11.7 0.7 15.9 2 1.8 4.7 2.8 7.5 2.8z" fill="#934A19" p-id="2722"></path></svg>