<?xml version="1.0" standalone="no"?><!DOCTYPE svg PUBLIC "-//W3C//DTD SVG 1.1//EN" "http://www.w3.org/Graphics/SVG/1.1/DTD/svg11.dtd"><svg t="1587110659991" class="icon" viewBox="0 0 1024 1024" version="1.1" xmlns="http://www.w3.org/2000/svg" p-id="2242" xmlns:xlink="http://www.w3.org/1999/xlink" width="64" height="64"><defs><style type="text/css"></style></defs><path d="M245.2 408.9L204 715c-31.9-13-42.6-44.2-84.5-64.8-14.1-6.9-24.5-16.3-32.2-26.9 6.9-62.7 37.5-211.3 47.2-257.8 12.4 33 91.2 30.5 110.7 43.4z" fill="#FFD071" p-id="2243"></path><path d="M937.5 557.7c-5.6-12.3-25.9-48.1-52.9 55.7C868 677 870.1 708 857 732.2l-51.4-381h75.9c0 0.1 35.8 118.4 56 206.5zM372.4 524.9l-15.9 168.6c-4 1.2-8.1 2.5-12.4 4C267.2 724.1 229 725.2 204 715l41.3-306.1c2.4 1.6 3.9 3.4 4.3 5.5 3.5 19.9 48.6 97.7 122.8 110.5z" fill="#F7BA41" p-id="2244"></path><path d="M857 732.2c-8.3 15.3-22.6 27.8-51.4 44.1-41.6 23.5-65.7 12.7-88.9 1.2l-23.1-161.1c6.2 9.7 15.2 18 29.8 22.6 43.4 13.5 41-109.7 58.1-134.7s24.8 12.3 42.9-13.6L857 732.2z" fill="#F3B00C" p-id="2245"></path><path d="M518.5 537.8v314.7c-91.9-8.9-5.8-202.5-158.6-160-1.1 0.3-2.3 0.6-3.4 1l15.9-168.6c1.9 0.3 3.9 0.6 5.9 0.9 4.9 0.6 9.9 0.9 15 0.9 40.7 0 62.3-4.8 77.8-9.8 28.4-0.9 41.9 8.8 47.4 20.9z" fill="#FFD071" p-id="2246"></path><path d="M716.8 777.6c-18.2-9-35.9-18.4-61.2-11.8-57.3 15.2-42.1 95.9-137.1 86.7V537.8c0.8 1.8 1.5 3.7 2 5.6 9.7 38.1 52.2 81.8 81.1 66 28.9-15.8 10.5-56.9 49.9-52.9 28.2 2.8 26.5 35.6 42.1 59.9l23.2 161.2z" fill="#F7BA41" p-id="2247"></path><path d="M518.5 445.9v91.9c-6.3-13.9-21.9-19.4-36.1-20.7-3.9-0.4-8-0.8-11.9 0-4.4 0.8-8.7 2.6-13.1 3.7-9.4 2.2-19 3.6-28.7 4.5-18.8 1.8-38.7 2.8-57.4-0.5-17.2-3.1-33.7-10-48.4-19.4-29.1-18.4-54-46.5-68.6-77.6-3.3-7-3.7-16.2-11.1-20.1-7.4-3.9-16.5-5.3-24.6-6.9-18.4-3.6-37.1-6.1-54.9-12.4-14.7-5.3-31-14.8-30.8-32.5 0.1-10.2 2.8-20.8 4.5-30.9 1.8-10.9 3.7-21.8 5.6-32.8 1.2 32 41.8 40.3 66.6 45 15.4 2.9 31.5 4.2 46.4 8.9 6.2 1.9 11.7 4.3 13.4 11 2 7.5 4.2 14.8 7.2 22 11 26.6 28.5 51.8 52.3 68.5 12.1 8.5 26 14.6 40.5 17.7 15.6 3.3 31.7 2.8 47.6 1.9 17.7-1 35.5-3.2 52.3-8.8 16.4-5.5 31.8-12.3 49.2-12.5z" fill="#823919" p-id="2248"></path><path d="M805.7 351.3l-1.8-13.3c-8.5 2.4-15.3 5.2-18.4 9.4-0.8 1.1-1.6 2.4-2.6 3.9-14.9 23.3-51.9 95.3-111.2 112.6-8.3 2.4-17 3.8-26.1 3.8-78.8 0-86.7-21.7-126.1-21.7h-1v91.9c0.8 1.8 1.5 3.7 2 5.6 9.7 38.1 52.2 81.8 81.1 66 28.9-15.8 10.5-56.9 49.9-52.9 28.2 2.8 26.5 35.6 42.1 59.9 6.2 9.7 15.2 18 29.8 22.6 43.4 13.5 41-109.7 58.1-134.7s24.8 12.3 42.9-13.6l-18.7-139.5z" fill="#72280E" p-id="2249"></path><path d="M857.8 388c-16.4 34.5-19.1 82.5-33.4 102.8l-18.8-139.5-1.8-13.3c27.2-7.6 72.2-11.3 72.3-45.7 0.3 2.2 4.4 38.4 7.9 59 3.6 21.1-9.5 30.8-26.2 36.7z" fill="#823919" p-id="2250"></path><path d="M746.1 201.6c0.8 2.4 4.6 28.3-6.2 42.7-2.4 3.2-5.5 5.9-9.5 7.5-90.1 38.2-132.7-42.2-220.7 22.7-80.3 59.2-116.6-13.2-164.2-10-54.2 3.6-57.3 60-112.6 52.4-17.1-2.4-39.8-13-53.1-29.1-8.7-10.6-13.3-23.5-9.6-38-16.1 10.2-27.7 23.7-27 42.4 2 55.1 122.2 41.4 126.1 63.1 3.9 21.7 37.4 112.3 124.1 112.3 86 0 86.7-21.3 125.1-21.7h1c39.4 0 47.3 21.7 126.1 21.7 9.1 0 17.8-1.4 26.1-3.8 59.3-17.3 96.3-89.2 111.2-112.6 1-1.5 1.8-2.8 2.6-3.9 0.6-0.8 1.3-1.6 2.2-2.3 0.1-0.1 0.3-0.2 0.5-0.4 0.6-0.4 1.1-0.8 1.8-1.2 0.1-0.1 0.3-0.2 0.5-0.3 0.1-0.1 0.2-0.1 0.3-0.2l0.6-0.3 0.6-0.3 0.6-0.3c0.5-0.2 1-0.5 1.5-0.7 0.3-0.1 0.6-0.3 1-0.4 2.7-1.1 5.7-2.1 9-3 27.2-7.6 72.2-11.3 72.3-45.7v-0.1c-0.2-66.2-120.5-61-130.3-90.5z" fill="#9E5126" p-id="2251"></path><path d="M204 715l-14.7 109.4C106.5 755 85.9 670.5 85.9 643c0-4.8 0.5-11.5 1.4-19.7 7.7 10.6 18.1 20 32.2 26.9 41.8 20.6 52.6 51.8 84.5 64.8z" fill="#F7BA41" p-id="2252"></path><path d="M356.5 693.5l-19.6 207.2c-63.5-18.5-111.5-45.9-147.7-76.3L204 715c25.1 10.2 63.3 9.1 140.1-17.5 4.3-1.5 8.4-2.8 12.4-4z" fill="#EF9E0F" p-id="2253"></path><path d="M518.5 852.5v72.2c-71.3-0.4-131.3-9.4-181.5-24.1l19.6-207.2c1.1-0.3 2.3-0.6 3.4-1 152.7-42.4 66.6 151.2 158.5 160.1z" fill="#F7BA41" p-id="2254"></path><path d="M732.3 886.1c-52.1 21.9-115.5 36.6-192.2 38.5-5.6 0.1-11.2 0.2-16.9 0.2h-4.8v-72.2c94.9 9.2 79.7-71.6 137.1-86.7 25.3-6.7 43 2.7 61.2 11.8l15.6 108.4z" fill="#EF9E0F" p-id="2255"></path><path d="M865.6 795.9c-32.7 33.7-76.2 66.3-133.3 90.2l-15.6-108.5c23.2 11.4 47.3 22.3 88.9-1.2 28.8-16.3 43.1-28.8 51.4-44.1l8.6 63.6z" fill="#EA9206" p-id="2256"></path><path d="M951 643c-1.9 23.8-24.9 90.4-85.3 152.9l-8.6-63.6c13.1-24.2 11-55.2 27.6-118.8 27-103.8 47.3-68 52.9-55.7 8.7 38 14.5 70.3 13.4 85.2z" fill="#EF9E0F" p-id="2257"></path><path d="M730.3 251.8c-22.9 9.7-47.3 12.7-71.9 9.3-20.6-2.9-40.6-9.4-61.2-12-23-2.8-45.3 1-65.9 11.7-13.8 7.1-25.5 17.4-39 24.8-10.6 5.8-22.2 10.2-34.3 11.6-19.6 2.3-38-4-55.3-12.6-15.1-7.5-30.1-17.4-47.1-19.8-20.3-2.9-39.5 6.2-54.5 19.2-13.8 12-26.1 27-44.5 31.7-21.1 5.4-44.4-2.4-61.8-14.5-9.2-6.4-17.5-14.6-22.2-24.9-2.3-4.9-3.6-10.3-3.7-15.7-0.1-2.8 0.2-5.6 0.7-8.3 0.4-2.2 0.5-2.4 2.2-3.7 1.3-1 2.9-1.7 4.4-2.5 12.6-7 26.3-12 39.9-16.5 7.2-2.4 14.4-4.6 21.6-7 6-2 13.3-3.9 18.3-7.9 4.7-3.8 7-10.7 9.7-15.9 3-5.9 6.1-11.7 9.5-17.3 7.2-11.7 15.8-22.4 26.1-31.5 18.1-15.8 40.5-25.5 63.9-29.9 24.2-4.6 50.9-5.5 74.9 0.7 17.1 4.4 32.9 11 50.6 13.1 27.5 3.3 56 2.2 82.8-4.9 19.9-5.3 38.9-12.3 59.8-12.3 20.1-0.1 41 3.2 58.9 12.6 20 10.5 34.4 28.5 44.2 48.6 4.3 8.7 9.2 18.5 10.3 28.2 0.9 8.1 0.8 16.6-1.1 24.5-1.9 8.9-6.5 17.5-15.3 21.2z" fill="#B16939" p-id="2258"></path><path d="M679.1 123.6c-19.6-6.8-42.1-8.7-62.6-5.7-14.4 2.1-28 7.1-42 10.9-18.9 5.1-38.2 7-57.8 6.7-17.1-0.2-34.2-1.8-50.7-6.6-10.9-3.2-21.5-7.4-32.7-9.6-18.5-3.6-38.1-3.3-56.7-1-36.5 4.5-70.1 20.8-92.7 50.3-6 7.9-11.1 16.3-15.7 25.1-4 7.6-7 18.2-14.8 22.6-8.8 5-19.2 7.4-28.8 10.5-10.2 3.3-20.5 6.7-30.4 10.8-17.2 7-36.4 16.6-45.9 33.4-4 7-4.4 13.7-5.2 21.5-0.5 5.2-1.8 10.5-2.7 15.7-1.6 9.3-3.2 18.6-4.7 27.9-0.7 4.3-1.4 8.6-2 12.9-0.4 2.8-0.8 5.5-0.7 8.3 0.1 2.7 1.5 5.5 1.6 8.1 0.1 4.1-1.9 9.2-2.8 13.3l-3.3 15.9c-6 29.2-11.9 58.4-17.5 87.7-6.1 31.9-12.1 63.8-17.3 95.9-3.4 21.1-7.7 42.9-7.8 64.3 0 9.3 1.7 18.5 3.8 27.5-6.6-18.1-12.2-37.7-11.1-57.2 0.7-12.3 2.4-24.6 4.2-36.8 5.3-36.6 12.2-73.1 19.1-109.4 6.5-33.9 13.3-67.8 20.3-101.7 1.1-5.2 3.2-11.2 3.4-16.5 0.1-2.3-1.1-4.8-1.3-7.2-0.3-3.6 0.2-7.1 0.7-10.6 1-6.6 2.1-13.1 3.1-19.7 1.9-11.3 4.7-22.8 5.9-34.2 0.6-6.2 0.7-11.7 3.3-17.6 5.8-13.1 18.2-22 30.4-28.6 13.6-7.3 28.4-12.4 43-17.1 10.4-3.4 22.4-5.8 31.8-11.7 5.3-3.3 7.7-10.2 10.4-15.5 11.4-22.6 25.7-43.2 47-57.5 15.6-10.5 33.5-17.1 52-20.4 20.9-3.8 43.5-4.6 64.4-0.7 13.7 2.6 26.5 8.3 40 11.5 22.5 5.3 46.9 5.8 69.8 3.3 18.9-2 36.3-8.2 54.6-12.9 20.7-5.4 42.6-5.5 63.5-0.9 12.5 2.8 24.5 7.6 34.9 15z" fill="#FFFFFF" p-id="2259"></path><path d="M859.9 333.2c0.1-3.2-0.1-6.6-0.7-10.1-3.1-18.2-6.7-49.6-7.5-56.4-0.2-21.6-10.6-38.4-31.8-51.5-16.7-10.4-37.6-16.8-56-22.4l-0.4-0.1c-14-4.3-37.3-11.4-39.2-17.1-11-32.9-26.5-56-47.6-70.6-17.4-12.1-38.5-18.3-66.1-19.6-23.3-1-39 3.7-54.2 8.3-16 4.9-32.6 9.9-61.6 9.9-6.1 0-11.1 5-11.1 11.1s5 11.1 11.1 11.1c32.3 0 52.1-6 68-10.8 14.6-4.4 27.1-8.3 46.7-7.4 23.2 1.1 40.6 6 54.5 15.6 17 11.8 29.8 31.2 39.2 59.4 5.5 16.5 26.4 22.9 52.9 31.1l1 0.3c33.9 10.3 72.3 22 72.4 53.3v1.4c0.3 3.1 4.4 37.8 7.8 58.2 0.4 2.2 0.5 4.5 0.3 6.5-0.2 1.4 0 2.8 0.4 4.2 31.2 105.1 66.9 239.1 64.4 270.8-1.1 13.1-9.4 39.6-25.7 69-14.5 26.3-41 65.1-84.6 101-4.7 4-5.3 10.9-1.4 15.6 2.1 2.6 5.2 4 8.6 4 2.6 0 5.1-0.9 7.1-2.5C890 726.4 922.1 640.7 924.6 610c3.4-43.4-48.3-221.7-64.7-276.8zM617.6 872.1c-0.6-3.1-2.4-5.7-4.9-7.3-2.4-1.6-5.3-2.2-8.2-1.6-33.4 6.4-69.7 9.6-107.8 9.6-82 0-154.4-11.9-215.2-35.4-50-19.3-92.2-46.3-125.6-80.5-25.5-26-46.1-56.7-59.5-88.6-11-26.3-14.9-48.1-14.9-58.9 0-13.9 4.8-55 27.6-171.8 0.6-2.9 0-6-1.6-8.5-1.6-2.4-4.2-4.2-7.1-4.7-2.9-0.6-5.9 0-8.4 1.7s-4.2 4.3-4.7 7.1c-18.6 95-28.1 154.3-28.1 176.2 0 12.8 4.1 36.6 15.6 65 14.3 35.3 36.8 69.2 65.1 98.1 35.8 36.5 80.7 65.4 133.6 85.8 63.3 24.5 138.4 36.9 223.2 36.9 39.3 0 77-3.4 112-10 6-1.1 10-6.9 8.9-13v-0.1zM115 335.8l0.4 0.1h0.1c0.3 0 0.7 0.1 1.2 0.1 5.5 0 10.1-4.1 10.8-9.4 3.1-21.3 9-54.1 9.5-57 0.2-0.9 0.2-1.7 0.2-2.2v-0.5c-0.4-12.3 7-23 22.7-32.6 15.3-9.4 35.5-15.8 51.7-21.1l0.2-0.1c19.4-6.2 28.9-9.5 34.2-15.6 2.7-3.2 4.9-7.3 7.9-13.1l0.6-1.2c6.2-12.3 15.6-31 33.6-46.7 21.3-18.6 50.3-28.4 86.2-29.3 6-0.2 10.7-5.1 10.7-11.1v-0.2c-0.2-5.9-5.2-10.7-11.1-10.7h-0.1C332.7 86.4 299 98 273.7 120c-21.1 18.3-31.8 39.4-38.9 53.4l-0.8 1.6c-1.7 3.3-3.6 7.1-4.6 8.3-2.6 2.1-17.7 6.9-24.2 9l-0.3 0.1c-36 11.6-90.2 29-89.6 74.1-0.2 1.1-0.5 2.9-0.9 5.3-2 11.2-6 34.6-8.5 51.4-0.6 2.9 0.1 5.8 1.7 8.2 1.7 2.3 4.4 4 7.4 4.4z" fill="#934A19" p-id="2260"></path></svg>