<?xml version="1.0" standalone="no"?><!DOCTYPE svg PUBLIC "-//W3C//DTD SVG 1.1//EN" "http://www.w3.org/Graphics/SVG/1.1/DTD/svg11.dtd"><svg t="1587110675934" class="icon" viewBox="0 0 1024 1024" version="1.1" xmlns="http://www.w3.org/2000/svg" p-id="2863" xmlns:xlink="http://www.w3.org/1999/xlink" width="64" height="64"><defs><style type="text/css"></style></defs><path d="M329.4 714c0.1 27.1 1 55.1 2.6 79.2-21.7-12.8-40.2-37.5-67.3-64.6-40.6-40.6-70.5-7.5-107.8-11.7-23.5-2.7-39-32.8-49.6-58.8 0.2-14.3 1.1-29.7 2.4-44.7 49.8 53.9 145.7 104.2 182.8 109.2 10.7 1.6 22.6-1.6 36.9-8.6z" fill="#EEE1CF" p-id="2864"></path><path d="M573.6 691.3c-11.2 5.4-22.8 12.4-29.7 23.2-3.8 6-5.2 12.6-6.8 19.4-1.3 5.5-3.6 10-9.1 12.3-7.7 3.3-17.2 3-25.1 0.7-17.1-5-30.6-18.1-46.6-25.4-9-4.1-18.6-6.5-28.5-6-12.7 0.7-24.3 5.9-35.4 11.9-26.4 14.2-53.4 35.2-60.4 65.9-1.6-24.2-2.4-48.5-2.6-72.8 0-1.4-0.4-3.4 0-4.8 0.5-2 0-1.6 1.9-2.5 2.1-1.1 4.2-2.1 6.2-3.3 5.4-2.9 10.7-6.1 15.9-9.3 8.6-5.4 17.1-11 25.5-16.6 39.3-26.4 78.2-53.1 118.8-77.5 23.8-14.3 48.1-27.9 72.7-40.8 3.3 41.6 3.5 83.7 3.2 125.6zM927.8 524.3s-32.1-56.1-61-11.3c-28.8 44.8-67.2 0.1-110.5 24.1-8 4.4-14.8 8.8-20.6 13.2-0.8-20-2.5-39.3-5.1-55.8l2.6-0.9c4.2-1.5 8.4-2.9 12.5-4.3 1-0.3 1.9-0.7 2.9-1 6.1-2 12-4 17.9-5.9 1.2-0.4 2.3-0.7 3.4-1.1 12-3.8 23.6-7.4 34.8-10.7 1.9-0.5 3.8-1.1 5.6-1.7 12.9-3.8 25.1-7.3 36.6-10.7 30-8.7 55.1-16.3 73.7-24.9 4 30.1 7.1 63.1 7.2 91z" fill="#E5CEBA" p-id="2865"></path><path d="M927.8 524.3c0.1 11.4-0.4 21.9-1.4 31 0 0.2-0.1 0.4-0.1 0.6 0 0.1 0 0.3-0.1 0.4 0 0.2-0.1 0.4-0.1 0.6 0 0.2-0.1 0.4-0.2 0.7-0.1 0.3-0.2 0.7-0.3 1s-0.2 0.5-0.3 0.8-0.3 0.7-0.4 1c-0.1 0.3-0.2 0.5-0.4 0.8-0.2 0.4-0.3 0.7-0.5 1-0.2 0.5-0.5 1-0.8 1.5-0.9 1.6-2 3.2-3.3 4.9-0.2 0.3-0.5 0.7-0.8 1s-0.5 0.7-0.8 1-0.6 0.7-0.9 1c-6.2 7.3-15.5 15.5-27.3 24.4-0.9 0.7-1.8 1.4-2.8 2.1s-1.9 1.4-2.8 2.1c-1 0.7-2 1.4-2.9 2.1-2.5 1.8-5.1 3.6-7.7 5.4-1.1 0.7-2.1 1.5-3.2 2.2-1.1 0.7-2.2 1.5-3.3 2.2-3.9 2.6-8 5.2-12.2 7.9-3.5 2.2-7.1 4.5-10.7 6.7-0.1 0.1-0.3 0.2-0.4 0.2-2.2 1.3-4.4 2.7-6.7 4.1l-2.4 1.5c-3.2 1.9-6.5 3.9-9.9 5.9-0.3 0.2-0.6 0.3-0.9 0.5l-4.2 2.4c-0.9 0.5-1.7 1-2.6 1.5-1.7 1-3.5 2-5.2 3s-3.5 2-5.3 3c-1.4 0.8-2.7 1.6-4.1 2.3-3.1 1.8-6.3 3.5-9.5 5.3-1.3 0.7-2.6 1.5-4 2.2-9.8 5.4-19.9 10.9-30.3 16.4l-5.7 3c-4.3 2.3-8.7 4.5-13 6.8-1.7 0.9-3.5 1.8-5.2 2.7-2.8 1.4-5.5 2.8-8.3 4.3l-19.5 9.9-4.2 2.1c-0.7 0.3-1.4 0.7-2.1 1-2 1-3.9 2-5.9 3-0.1 0.1-0.3 0.1-0.4 0.2-2.5 1.3-5.1 2.5-7.7 3.8-2.7 1.3-5.4 2.7-8.1 4 0 0-0.1 0-0.1 0.1-2.7 1.3-5.3 2.6-8 3.9-1.6 0.8-3.2 1.6-4.8 2.3-3.2 1.5-6.4 3.1-9.6 4.7-6.4 3.1-12.9 6.2-19.3 9.2-4.3 2-8.6 4.1-12.9 6.1-9 4.2-17.9 8.4-26.9 12.5-66 30.6-129.2 57.9-175.7 76.4 54.4-22 122.5-52.4 150.4-65 0 0 1.2-30.9 1.5-72.1v-2.6c0.6-0.3 1.2-0.6 1.9-0.9 4-1.8 7.6-3.1 10.9-4 24.3-6.4 33.3 9.2 69.1-9.9 71.8-38.2 18.1-79.6 80.3-126.2 5.8-4.4 12.6-8.7 20.6-13.2 43.2-24 81.7 20.7 110.5-24.1 28.9-44.8 61 11.3 61 11.3z" fill="#E5CEBA" p-id="2866"></path><path d="M957.4 346v46.5c0 17.9-13.2 30.2-36.5 40.9-18.6 8.6-43.7 16.1-73.7 24.9-32.4-14.1-87.5-20.1-87.5-20.1 65.8-21.5 120.2-33.9 155.1-48.6 27.2-11.4 42.6-24.1 42.6-43.6z" fill="#F9CB40" p-id="2867"></path><path d="M586.3 686.5c-3.3 0.9-6.9 2.2-10.9 4-0.6 0.3-1.3 0.6-1.9 0.9 0.3-39.8-0.2-88-3.2-125.8 4.2-2.2 8.5-4.4 12.9-6.7 3.1 38.4 3.5 87.6 3.1 127.6z" fill="#B7A091" p-id="2868"></path><path d="M847.2 458.3c-64.6 18.8-128.9 38.3-190.6 65.5-66.3 29.2-130.2 63.8-191.4 102.5-28.8 18.2-56.9 37.6-85.2 56.7-13.1 8.8-26.2 17.6-40 25.4-13.2 7.4-28.2 15.1-43.7 14.6-8.6-0.3-17.3-3.1-25.4-5.9-10.5-3.6-20.7-8-30.7-12.7-24.7-11.7-48.5-25.5-71.1-41-23.5-16.1-46.3-34.2-64.9-56C94 595.5 84.6 582 80.4 566.7c-1.8-6.4-1.9-12.7-2.1-19.3-0.2-7.3-0.6-14.6-0.7-21.9-0.1-3.4-0.1-6.8 0.1-10.2 0.1-1.8-0.3-8.5 1.5-9.2-2.5 4.2 1 13.7 2.5 18.1 2.5 7.3 6.2 14.1 10.4 20.5 8.9 13.6 20.1 25.5 32 36.5 21 19.4 44.6 36.2 69 51 22.1 13.5 45.3 25.8 69.4 35.2 8.5 3.3 17.3 6.4 26.3 8.1 12.4 2.4 24.3-0.8 35.7-5.8 14.5-6.4 28-15.1 41.2-23.7 13.8-9 27.4-18.4 41-27.7 28.5-19.3 57.2-38.2 86.7-56 60.8-36.7 124.4-69.8 190.2-96.5 16.3-6.6 32.9-12.8 49.5-18.7 4.2-1.5 8.4-2.9 12.7-4.4 4.2-1.4 8.8-3.6 13.1-4.4 1.6-0.3 3.1 0 4.7 0.2 22.2 2.8 44.4 6.7 65.8 13.2 6.1 2.1 12 4.1 17.8 6.6z" fill="#F3B00C" p-id="2869"></path><path d="M957.4 346c0 44.5-80.9 54-197.8 92.2-67.4-11-163.8-22.4-184.2-2-32 32-88.6 12.2-110.8 0-41.8-23-136.5-28.8-165.9 3.2s39.7 80-10 104.1c-49.6 24-81.7-54.4-130.9-77.8-32.9-15.6-57.3 7.8-78.8 40.4-0.2 0.3-0.5 0.7-0.7 1v-0.8C78.4 432 301 298.6 499 227.9c0.6-0.2 1.2-0.4 1.9-0.7 1-0.4 1.9-0.7 2.9-1 26.5-8.7 72.1-3.7 64.7 28.4-0.5 2-0.6 4-0.5 6.1 1.4 20.9 30.4 46.8 47.5 51.7 67.7 19.4 28.6-35.4 102.4-53.5 58.5-14.4 36.8 43.8 139.3 45.9 30.7 0.6 48-7.3 57.1-18.8 2.5-3.1 4.4-6.5 5.8-10.1 22.1 21.9 36.5 45.5 37.3 68.3v1.8z" fill="#FFE39C" p-id="2870"></path><path d="M575.4 436.2c-15.4 15.4-36.3 18.8-56.5 16.9-72.1-57.1-188.4-125.1-221-135.9 0-8.3 125.9-77.6 154.8-71.8 49.3 5.3 191.1 125.9 245.9 184.2-54.3-6.2-108.5-8-123.2 6.6zM735.8 550.3c-12.6 9.4-23.5 21.2-29.5 35.8-6.5 16-5.9 33.6-11.5 49.8-5.7 16.4-18.2 28.1-32.8 36.9-12.4 7.5-26.2 13.7-41 13.6-11.8-0.1-23-3.1-34.8 0 0.2-27.7 0.1-55.4-0.8-83.1-0.9-26.9-1.8-54.2-6.6-80.7-0.2-1.2-2-6.2-1.5-7.3 0.3-0.8 3.9-2 4.6-2.4 1.5-0.8 3.1-1.6 4.6-2.4l19.8-9.9c13.5-6.6 27.1-13.1 40.8-19.3 13.9-6.3 28-12.3 42.2-17.9 6.7-2.7 13.3-5.2 20.1-7.8 1.6-0.6 3.3-1.2 4.9-1.8 1.7-0.6 2.8-1.5 4-0.5 1.5 1.1 2.4 4.5 3.2 6.2 5.7 13.1 8.2 27.7 10.1 41.8 2.4 16.3 3.6 32.7 4.2 49z" fill="#3D3747" p-id="2871"></path><path d="M728.1 690.2c-1.7 2.4-4.3 3.2-6.8 4.5-3.3 1.7-6.5 3.3-9.8 5-6 3-12 6.1-18.1 9.1-12.1 6-24.2 11.9-36.3 17.8-13.7 6.6-27.4 13.1-41.1 19.6-10.4 4.9-21.2 9-31.4 14 0.7-17 1.2-34 1.5-51 0.1-3.7 0.1-7.5 0.2-11.2 0-2.6-1-10 0.6-11.5 1.1-1 5.1-1 6.5-1.2 2.1-0.2 4.2-0.3 6.4-0.3 7.7 0.1 15.3 1.8 23.1 1.6 11.9-0.3 23-4.7 33.3-10.2 10.6-5.7 20.9-12.7 28.6-22.1 11.1-13.5 13.1-29.9 15.9-46.6 1.6-9.6 4-19 8.6-27.7 6.2-11.9 15.9-21.5 26.5-29.5 1.1 26.9 0.8 53.9-0.8 80.8-1.1 19.5-2.3 39.7-6.9 58.9z" fill="#27242D" p-id="2872"></path><path d="M586.3 686.5c0 3.3-0.1 6.5-0.1 9.7-0.4 34.3-1.3 60.7-1.5 63.7v0.3c-2.2 1-4.1 1.9-5.8 2.6-0.1 0-0.2 0.1-0.2 0.1-0.4 0.2-0.8 0.4-1.2 0.5-0.4 0.2-0.8 0.3-1.1 0.5-0.1 0-0.2 0.1-0.2 0.1-0.3 0.1-0.5 0.2-0.7 0.3s-0.3 0.1-0.5 0.2c-0.3 0.1-0.6 0.3-0.8 0.4-0.1 0-0.1 0-0.2 0.1-0.3 0.1-0.6 0.3-0.8 0.4-0.4 0.2-0.8 0.3-1.1 0.5 0 0 1.2-30.9 1.5-72.1v-2.6c0.6-0.3 1.2-0.6 1.9-0.9 3.9-1.7 7.5-3 10.8-3.8z" fill="#9B8376" p-id="2873"></path><path d="M573.6 691.3v2.6c-0.4 41.2-1.5 72.1-1.5 72.1-27.9 12.6-96 43-150.5 65.1-0.7 0.3-1.5 0.6-2.2 0.9-0.7 0.3-1.3 0.5-2 0.8-32.6 12.9-56.4 21.2-66.2 23h-0.2c-0.2 0-0.4 0.1-0.5 0.1-0.2 0-0.5 0.1-0.7 0.1-1.8 0.2-3.8 0.3-6 0.2h-0.9c-0.3 0-0.6 0-1-0.1-0.3 0-0.7-0.1-1-0.1h-0.4c-1.7-7.8-3.4-16.1-4.9-25.1v-0.2c-1.3-10.5-2.5-23.3-3.4-37.4 7.4-32.4 37.8-55 68.9-70.2 56-27.4 78.8 28.6 116.3 25.5 36.8-3.3 0-30.4 56.2-57.3zM927.8 524.3c0.1 9-0.2 18-1 27-0.6 7-2.9 12.2-7.3 17.8-9.9 12.7-23.5 22.7-36.5 32.1-30.6 22-63.5 40.8-96.5 59-19.8 10.9-39.7 21.4-59.8 31.7 2.9-3.5 3-10.2 3.7-14.6 1-6.3 1.7-12.6 2.4-18.9 1.6-15.5 2.5-31 3-46.6 0.6-17.4 0.7-34.9 0.2-52.4-0.1-2-0.1-4.1-0.2-6.1-0.1-2.6-0.2-3 2-4.6 3.4-2.5 6.9-4.8 10.5-7 6.7-4.1 13.5-8 21.2-10.1 12.3-3.4 24.9-2.2 37.3-0.4 11.1 1.7 22.8 4.1 33.9 1.7 13.8-3 20.7-13.1 28.7-23.8 6.1-8.1 14.8-15 25.5-13.3 14.4 2.5 26 16.7 32.9 28.5z" fill="#EEE1CF" p-id="2874"></path><path d="M340.3 856c-16.1-1.8-31.7-8.4-46.3-14.9-20.1-9-39.5-19.6-58.4-30.9-19.7-11.7-38.9-24.2-57.5-37.6-19-13.6-38.2-27.9-54.2-44.9-8.1-8.7-12.6-17.2-14.5-29-2.2-13.3-2.3-27-2.1-40.5 8 19.4 18.1 43.5 37.2 54.5 17.4 10 39.2 1.9 57.2-2 9.3-2 18.9-3.3 28.4-1.8 11.7 1.9 21.9 8 30.6 15.8 20 17.9 35.9 39.9 56.2 57.4 2.4 2 4.8 4 7.3 5.8 1.9 1.4 6 3.1 7.4 5 1.6 2.1 0.7 8.4 0.9 11.4 0.2 4 0.6 8 1 12 1.3 13 2.3 27.4 6.8 39.7z" fill="#F9F0E5" p-id="2875"></path><path d="M717.9 452.7c-23.8 8.7-48.7 18.7-74.4 30.5-23.6 10.8-45.6 21.6-66.1 32.2-4.5-15.2-27.4-37.7-58.4-62.3 20.1 1.9 41.1-1.5 56.5-16.9l0.4-0.4c15.3-14.2 68.9-12.4 122.8-6.2 2.6 2.8 5 5.4 7.2 7.9 5.4 6.1 9.5 11.3 12 15.2z" fill="#504B5B" p-id="2876"></path><path d="M577.4 515.4c-173.1 89.6-239.3 167-285 160.8-51-7-212.7-99.3-213.9-169 0.2-0.3 0.4-0.7 0.7-1 21.5-32.6 45.9-56 78.8-40.4 49.2 23.3 81.2 101.8 130.9 77.8 49.6-24-19.4-72 10-104.1 2.4-2.6 5.3-5 8.5-7.2 35-23.1 113.9-17.6 153.7 2 1.3 0.6 2.5 1.3 3.7 1.9 11.6 6.4 32.4 14.8 54.3 16.9 30.9 24.6 53.8 47.1 58.3 62.3zM759.6 438.2c-13.5 4.4-27.4 9.2-41.7 14.4-2.5-3.9-6.6-9-12-15.1-2.2-2.5-4.6-5.1-7.2-7.9 21 2.5 42.1 5.6 60.9 8.6z" fill="#FFD071" p-id="2877"></path><path d="M920.1 275.9c-6.5 16.6-23.9 29.7-62.9 28.9-102.5-2.1-80.8-60.3-139.3-45.9-73.8 18.1-34.8 72.9-102.4 53.5-18.9-5.4-52.1-36.2-47.1-57.8 7.5-32.1-38.1-37.1-64.7-28.4 78.4-27.7 152.6-45.3 207.2-45.3 60.2 0 156.6 42.8 209.2 95z" fill="#FFEABB" p-id="2878"></path><path d="M108.9 698.6c-1.2-1.6-2.1-3.1-2.8-4.5-7.9-15.2-7.8-52.4-5.2-89.8 2.6 3.2 5.4 6.4 8.3 9.6-2.6 31.1-3.7 63.5-0.3 84.7zM692.1 169.7c-65.1 0-158.7 25.6-253.6 63.3-1.1-0.2-2.4-0.3-3.8-0.3-34.2 0-148.1 63-148.2 70.8C166 367.8 71 441.2 71 489.4c-0.6 4.2-0.9 9.2-0.9 14.6 0 10.7 0.9 22.7 0.9 31.1 0 9.3 3 19.1 8.2 29-0.8-3.5-1.1-7-1.1-10.4 0-8.6-0.9-20.7-0.9-31.6 0-5.4 0.2-10.6 0.9-14.8 0-49 96.6-123.5 219-188.8 0.1-8 115.8-72 150.6-72 1.4 0 2.8 0.1 3.9 0.3 96.4-38.3 191.5-64.3 257.6-64.3 44.4 0 108.5 23.3 160.1 56.5-53.2-39.8-127.7-69.3-177.2-69.3zM71 490.2c0-0.1 0-0.1 0 0v0z" fill="#FFFFFF" p-id="2879"></path><path d="M852.4 203.1c-53.1-33-115.4-54.3-158.7-54.3-61.8 0-152.4 22.4-255.3 63.1-14.6-0.9-41.1 7.8-79 26-30.6 14.6-62.7 33-74.8 42.8-2.2 1.7-3.7 3.2-4.9 4.7-9.7 5.2-19.2 10.5-28.4 15.7-5.2 3.1-7.1 9.6-4.1 14.9l0.1 0.1c3.1 5.2 9.6 7.1 15 4.1 10.2-5.8 20.8-11.5 30.6-16.8 2-1.1 3.7-2.8 4.7-4.9 4.6-4.3 29.1-19.9 64.4-37.4 48-23.8 70.2-28.3 75.8-27.2 2 0.4 4.1 0.2 6-0.5l0.1-0.1c101.6-40.4 190.3-62.6 249.8-62.6 39.6 0 97.3 20 147.1 50.9 25.2 15.6 46.2 32.9 60.8 50 15.5 18 23.3 34.9 23.3 50.2v0.5c0 0.4-0.1 0.9-0.1 1.4v0.1c0 0.5 0 1.2 0.1 1.9v41.8c0 8.3-3.5 18.4-29.5 30.3-2.7 1.2-4.7 3.5-5.7 6.2-1 2.8-0.9 5.8 0.4 8.4l0.1 0.1c1.9 3.9 5.8 6.3 10 6.3 1.4 0 2.6-0.3 3.7-0.5l0.5-0.1 0.5-0.2c18.2-8.3 42.3-22.5 42.3-50.2v-45.9c-0.3-38.2-34.8-81.5-94.8-118.8zM443.4 776.5c-2.7-1.1-5.7-1.1-8.5 0-60.4 25.1-90.5 35-97.8 36-17.9 2.3-64.8-18.2-119.4-52.3-54.8-34.1-94.4-67.7-101-80.5-2.8-5.4-8.8-25.3-3.2-93.8v-0.1c0.2-3-0.9-6.1-2.9-8.3-18.4-20-27.7-37.5-27.7-52 0-3.9-0.2-8.5-0.4-13.3v-1c-0.3-7.9-0.8-18.6-0.2-26.4 0.4-1.2 0.6-2.5 0.6-3.7v-1.5c0-26.2 37.9-61.4 60.4-80 2.3-1.9 3.7-4.5 4-7.4s-0.6-5.7-2.5-8c-3.8-4.8-10.6-5.4-15.5-1.5-44.9 37.1-67.9 69.4-68.4 96.1-1.3 9.2-0.8 21.5-0.4 32.3l0.1 2c0.2 4.6 0.4 8.9 0.4 12.3 0 19.3 10.2 40.6 30.2 63.3-4.1 53.2-2.2 85.3 6 101 12.9 24.6 74.5 67.5 108.9 89 27.2 16.9 53 30.9 74.5 40.4 23.3 10.3 41 15.3 54 15.3 2 0 3.8-0.1 5.3-0.3 12.1-1.5 46.9-14.1 103.3-37.4 2.7-1.1 4.8-3.2 6-5.9 1.1-2.7 1.1-5.8 0-8.4-1-2.7-3.1-4.8-5.8-5.9zM906.7 516.7c-6.2-0.5-11.5 3.7-12.2 9.7-0.4 3-6 20.1-82.2 66.2-46.6 28.2-111.1 62.1-186.3 98.1-5.5 2.5-7.8 9.1-5.2 14.7 1.8 3.8 5.7 6.3 9.9 6.3 1.6 0 3-0.4 4.1-0.7l0.4-0.1 0.4-0.2c76.2-36.6 141.3-70.9 188.2-99.2 61.8-37.2 90.4-62.7 92.7-82.5v-0.1c0.4-6.1-3.8-11.4-9.8-12.2z" fill="#934A19" p-id="2880"></path></svg>